<?xml version="1.0" encoding="utf-8"?>
<!-- Generator: Adobe Illustrator 27.5.0, SVG Export Plug-In . SVG Version: 6.00 Build 0)  -->
<svg version="1.1" xmlns="http://www.w3.org/2000/svg" xmlns:xlink="http://www.w3.org/1999/xlink" x="0px" y="0px"
	 viewBox="0 0 500 500" style="enable-background:new 0 0 500 500;" xml:space="preserve">
<g id="Floor">
	<g id="Floor_13_">
		<ellipse id="Floor_4_" style="fill:#EBEBEB;" cx="249.048" cy="342.727" rx="236.479" ry="140.315"/>
	</g>
</g>
<g id="Shadows">
	<ellipse id="Shadow_14_" style="opacity:0.05;" cx="316.626" cy="426.227" rx="61.641" ry="35.588"/>
	<path id="Shadow_4_" style="opacity:0.05;" d="M458.756,308.847c-17.345-7.497-44.998-7.498-61.766-0.001
		c-16.767,7.497-16.768,19.654,0,27.151c16.768,7.498,44.421,7.497,61.766,0C476.101,328.5,476.101,316.345,458.756,308.847z"/>
	<path id="Shadow_1_" style="opacity:0.05;" d="M354.427,340.635l-103.019-59.44l43.641-25.196c2.195-1.267,2.195-3.322,0-4.589
		l-38.933-22.477c-2.195-1.267-5.754-1.267-7.949,0L21.718,359.674c-2.195,1.267-2.195,3.322,0,4.589l38.932,22.477
		c2.195,1.267,5.754,1.267,7.949,0l19.379-11.152l103.018,59.441L354.427,340.635z"/>
</g>
<g id="Device_1_">
	<g id="Device">
		<g>
			<g id="XMLID_1341_">
				<g id="XMLID_1346_">
					<path id="XMLID_1347_" style="fill:#27DEBF;" d="M202.505,341.473l33.468-19.352c3.449-1.992,5.174-4.602,5.175-7.212
						c0-2.611,0.014-4.656,0.014-4.656l-34.725-19.58c-1.84-1.062-3.331-3.646-3.331-5.771v-41.454l-58.457,33.78l-0.002,41.453
						c0,2.125,1.492,4.708,3.331,5.771l29.539,17.021C184.418,345.457,195.605,345.457,202.505,341.473z"/>
				</g>
				<g id="XMLID_1510_" style="opacity:0.4;">
					<path id="XMLID_1511_" d="M202.505,341.473l33.468-19.352c3.449-1.992,5.174-4.602,5.175-7.212
						c0-2.611,0.014-4.656,0.014-4.656l-34.725-19.58c-1.84-1.062-3.331-3.646-3.331-5.771v-41.454l-58.457,33.78l-0.002,41.453
						c0,2.125,1.492,4.708,3.331,5.771l29.539,17.021C184.418,345.457,195.605,345.457,202.505,341.473z"/>
				</g>
				<path id="XMLID_862_" style="opacity:0.2;" d="M158.684,325.989v4.635l-10.714-6.174c-1.827-1.058-3.328-3.635-3.328-5.77
					V277.23l11.137-6.425c0.231,2.828,0.481,5.751,0.712,8.598l-7.809,4.52v32.428c0,2.135,1.481,4.713,3.328,5.77L158.684,325.989z
					"/>
				<path id="XMLID_1344_" style="fill:#27DEBF;" d="M148.68,316.359c0,2.125,1.492,4.708,3.332,5.77l25.502,14.69
					c6.9,3.983,18.088,3.985,24.989,0.003l33.485-19.35c6.901-3.982,6.902-10.44,0.002-14.424l-25.518-14.7
					c-1.84-1.062-3.332-3.646-3.332-5.771l0-32.432l-58.458,33.779V316.359z"/>
				<path id="XMLID_1506_" style="opacity:0.3;" d="M148.68,316.359c0,2.125,1.492,4.708,3.332,5.77l25.502,14.69
					c6.9,3.983,18.088,3.985,24.989,0.003l33.485-19.35c6.901-3.982,6.902-10.44,0.002-14.424l-25.518-14.7
					c-1.84-1.062-3.332-3.646-3.332-5.771l0-32.432l-58.458,33.779V316.359z"/>
				<path id="XMLID_1343_" style="opacity:0.1;" d="M217.256,292.272v-0.005l-6.786-3.918c-1.84-1.062-3.332-3.646-3.332-5.771
					l0-32.432l-58.459,33.779v32.434c0,2.125,1.492,4.708,3.332,5.77l6.668,3.85L217.256,292.272z"/>
				<path id="XMLID_1342_" style="fill:#27DEBF;" d="M241.156,310.257c0,0,0,2.039,0,4.655c0,2.616-1.731,5.213-5.174,7.213
					l-33.474,19.34c-3.308,1.923-7.598,2.885-11.926,2.962v-4.636c4.328-0.058,8.617-1.058,11.926-2.962l33.474-19.36
					C239.425,315.489,241.156,312.873,241.156,310.257z"/>
				<path id="XMLID_1508_" style="opacity:0.2;" d="M241.156,310.257c0,0,0,2.039,0,4.655c0,2.616-1.731,5.213-5.174,7.213
					l-33.474,19.34c-3.308,1.923-7.598,2.885-11.926,2.962v-4.636c4.328-0.058,8.617-1.058,11.926-2.962l33.474-19.36
					C239.425,315.489,241.156,312.873,241.156,310.257z"/>
			</g>
			<path id="XMLID_1340_" style="fill:#455A64;" d="M54.819,355.476c2.158,1.245,5.771,2.137,8.071,0.809
				c28.74-16.592,197.338-113.931,226.074-130.521c2.3-1.328,4.163-9.35,4.163-12.006V34.857c0-2.656-1.749-5.818-3.906-7.064
				c-2.158-1.246-5.771-1.179-8.071,0.149L55.079,158.463c-2.3,1.328-4.165,4.557-4.165,7.213l-0.003,182.737
				C50.912,351.068,52.661,354.231,54.819,355.476z"/>
			<path id="XMLID_342_" style="fill:#27DEBF;" d="M62.295,361.013c-2.308,1.019-5.515,0.997-7.48-0.132
				c-3.207-1.843-3.905-5.364-3.905-8.037V336.96l7.809,4.52l0.003,16.843C58.723,360.746,60.276,361.821,62.295,361.013z"/>
			<path id="XMLID_435_" style="opacity:0.4;" d="M62.295,361.013c-2.308,1.019-5.515,0.997-7.48-0.132
				c-3.207-1.843-3.905-5.364-3.905-8.037V336.96l7.809,4.52l0.003,16.843C58.723,360.746,60.276,361.821,62.295,361.013z"/>
			<path id="XMLID_1339_" style="fill:#37474F;" d="M62.891,356.281l226.073-130.52c2.3-1.328,4.165-9.351,4.165-12.007V34.851
				c0-2.656-1.865-3.732-4.165-2.404L62.894,162.968c-2.3,1.328-4.169,4.555-4.169,7.211l0.002,182.738
				C58.727,355.573,60.591,357.609,62.891,356.281z"/>
			<path id="XMLID_1336_" style="fill:#27DEBF;" d="M58.72,341.48l0.003,16.836c0,2.656,1.868,3.732,4.168,2.404L288.964,230.2
				c2.3-1.328,4.164-4.557,4.164-7.213v-16.872L58.72,341.48z"/>
			<path id="XMLID_436_" style="opacity:0.3;" d="M58.72,341.48l0.003,16.836c0,2.656,1.868,3.732,4.168,2.404L288.964,230.2
				c2.3-1.328,4.164-4.557,4.164-7.213v-16.872L58.72,341.48z"/>
			<path id="XMLID_1334_" style="fill:#27DEBF;" d="M66.538,320.588l0.002-147.814c0-1.594,1.119-3.531,2.499-4.328L282.811,45.025
				c1.38-0.797,2.499-0.151,2.499,1.443l0.007,147.817c0,1.593-1.119,3.531-2.499,4.328L69.037,322.031
				C67.657,322.828,66.538,322.182,66.538,320.588z"/>
			<path id="XMLID_1333_" style="fill:#27DEBF;" d="M66.538,320.588l0.002-147.814c0-1.594,1.119-3.531,2.499-4.328L282.811,45.025
				c1.38-0.797,2.499-0.151,2.499,1.443l0.007,147.817c0,1.593-1.119,3.531-2.499,4.328L69.037,322.031
				C67.657,322.828,66.538,322.182,66.538,320.588z"/>
			<path id="XMLID_980_" style="opacity:0.5;fill:#FFFFFF;" d="M66.538,320.588l0.002-147.814c0-1.594,1.119-3.531,2.499-4.328
				L282.811,45.025c1.38-0.797,2.499-0.151,2.499,1.443l0.007,147.817c0,1.593-1.119,3.531-2.499,4.328L69.037,322.031
				C67.657,322.828,66.538,322.182,66.538,320.588z"/>
			<path id="XMLID_1332_" style="fill:#455A64;" d="M175.924,279.802c-1.903,1.098-3.445,3.77-3.445,5.967
				c0,2.197,1.543,3.087,3.445,1.988c1.903-1.098,3.445-3.77,3.445-5.967C179.369,279.593,177.827,278.703,175.924,279.802z"/>
			<path id="XMLID_1331_" style="fill:#263238;" d="M59.951,166.061c-0.75,1.308-1.207,2.791-1.226,4.118l-0.005,171.3l-7.809-4.52
				l0.004-171.284c0-1.327,0.476-2.808,1.226-4.116L59.951,166.061z"/>
		</g>
		<g id="XMLID_1244_">
			<g id="XMLID_915_">
				<polygon id="XMLID_1253_" style="fill:#EBEBEB;" points="251.421,83.493 91.883,175.61 91.883,308.842 91.347,309.148
					90.408,309.685 88.061,311.045 88.061,173.407 247.598,81.29 250.51,82.966 				"/>
				<polygon id="XMLID_1279_" style="fill:#F0F0F0;" points="251.421,83.493 251.421,216.735 97.602,305.537 93.79,307.74
					92.841,308.286 91.903,308.823 91.883,308.842 91.883,175.61 				"/>
				<polygon id="XMLID_2841_" style="fill:#FAFAFA;" points="247.599,81.293 251.42,83.497 91.881,175.607 88.061,173.404 				"/>
			</g>
			<g id="XMLID_861_">
				<polygon id="XMLID_1247_" style="fill:#27DEBF;" points="252.791,82.727 251.421,83.522 91.883,175.629 91.347,175.936
					91.347,309.148 90.408,309.685 90.408,175.399 90.964,175.083 250.51,82.966 251.861,82.191 				"/>
				<polygon id="XMLID_985_" style="opacity:0.1;" points="252.791,82.727 251.421,83.522 91.883,175.629 91.347,175.936
					91.347,309.148 90.408,309.685 90.408,175.399 90.964,175.083 250.51,82.966 251.861,82.191 				"/>
				<path id="XMLID_1543_" style="fill:#27DEBF;" d="M251.421,83.522L91.883,175.629v0.01l-0.536,0.307v133.203l0.536-0.306
					l0.019-0.019l0.939-0.536l0.948-0.546l3.813-2.203l153.818-88.802l1.37-0.785V82.727L251.421,83.522z"/>
				<path id="XMLID_1532_" style="opacity:0.05;" d="M251.421,83.522L91.883,175.629v0.01l-0.536,0.307v133.203l0.536-0.306
					l0.019-0.019l0.939-0.536l0.948-0.546l3.813-2.203l153.818-88.802l1.37-0.785V82.727L251.421,83.522z"/>
				<polygon id="XMLID_874_" style="fill:#27DEBF;" points="251.857,82.191 252.792,82.729 91.345,175.942 90.41,175.403 				"/>
				<polygon id="XMLID_867_" style="opacity:0.4;fill:#FFFFFF;" points="251.857,82.191 252.792,82.729 91.345,175.942
					90.41,175.403 				"/>
			</g>
			<g id="XMLID_1873_">
				<polygon id="XMLID_1256_" style="fill:#27DEBF;" points="254.285,83.589 252.791,84.451 251.421,85.246 204.807,112.155
					92.841,176.798 92.841,308.286 91.903,308.823 91.903,176.262 251.421,84.174 252.791,83.378 253.356,83.053 				"/>
				<polygon id="XMLID_1251_" style="opacity:0.1;" points="254.285,83.589 252.791,84.451 251.421,85.246 204.807,112.155
					92.841,176.798 92.841,308.286 91.903,308.823 91.903,176.262 251.421,84.174 252.791,83.378 253.356,83.053 				"/>
				<path id="XMLID_1277_" style="fill:#27DEBF;" d="M252.791,84.451l-1.37,0.795l-46.614,26.909L92.841,176.807v131.479
					l0.948-0.546l3.813-2.203l153.818-88.802l1.37-0.785l1.494-0.862V83.589L252.791,84.451z"/>
				<polygon id="XMLID_763_" style="fill:#27DEBF;" points="253.354,83.054 254.289,83.592 92.842,176.805 91.907,176.265 				"/>
				<polygon id="XMLID_761_" style="opacity:0.4;fill:#FFFFFF;" points="253.354,83.054 254.289,83.592 92.842,176.805
					91.907,176.265 				"/>
			</g>
			<polygon id="XMLID_986_" style="fill:#EBEBEB;" points="257.149,86.808 254.285,88.465 252.791,89.327 251.421,90.113
				97.602,178.915 97.602,305.537 93.79,307.74 93.79,176.712 251.421,85.706 252.791,84.911 253.327,84.605 254.285,85.16 			"/>
			<polygon id="XMLID_758_" style="fill:#FAFAFA;" points="253.324,84.6 257.145,86.804 97.606,178.914 93.786,176.71 			"/>
			<polygon id="XMLID_379_" style="fill:#E0E0E0;" points="97.605,178.914 97.605,305.521 257.146,213.41 257.145,86.805 			"/>
		</g>
	</g>
</g>
<g id="Notebook_1_">
	<g id="Notebook">
		<path id="XMLID_1177_" style="fill:#F5F5F5;" d="M268.457,181.872l-11.311-95.066L97.602,178.915l11.634,95.867
			c7.272,59.928,36.158,115.144,81.239,155.293l0.517,0.461l159.544-92.11l0,0C304.873,298.098,275.655,242.369,268.457,181.872z"/>
		<g id="XMLID_428_">
			<g id="XMLID_489_">
				<g id="XMLID_648_">
					<g id="XMLID_3709_">
						<path id="XMLID_4118_" style="fill:#37474F;" d="M105.275,179.553c1.101-0.637,1.994-0.121,1.994,1.151
							c0,1.273-0.893,2.82-1.994,3.456c-1.102,0.636-1.994,0.12-1.994-1.151C103.281,181.737,104.174,180.19,105.275,179.553z"/>
						<path id="XMLID_3711_" style="fill:#27DEBF;" d="M99.66,163.637c-2.171-1.253-4.254-1.434-5.86-0.506
							c-1.606,0.923-2.49,2.819-2.49,5.329c0,0.913,0.123,1.866,0.349,2.829l1.331-0.771c-0.137-0.697-0.206-1.39-0.206-2.058
							c0-1.965,0.624-3.404,1.754-4.057c1.13-0.653,2.687-0.472,4.386,0.511c3.792,2.186,6.876,7.53,6.876,11.911
							c0,1.095-0.196,2.029-0.56,2.751c-0.295,0.57-0.697,1.012-1.193,1.302c-0.039,0.025-0.079,0.044-0.118,0.064
							c-0.334,0.54-0.565,1.154-0.629,1.734c0.526-0.084,1.026-0.26,1.483-0.521c0.958-0.555,1.66-1.449,2.068-2.618
							c0.28-0.786,0.422-1.699,0.422-2.711C107.273,171.977,103.86,166.059,99.66,163.637z"/>
					</g>
					<g id="XMLID_3706_">
						<path id="XMLID_3708_" style="fill:#37474F;" d="M114.966,173.958c1.102-0.637,1.994-0.122,1.994,1.151
							s-0.893,2.82-1.994,3.456c-1.101,0.636-1.994,0.12-1.994-1.151C112.971,176.143,113.864,174.595,114.966,173.958z"/>
						<path id="XMLID_3707_" style="fill:#27DEBF;" d="M109.351,158.042c-2.171-1.253-4.254-1.434-5.86-0.506
							c-1.606,0.923-2.49,2.819-2.49,5.329c0,0.914,0.123,1.866,0.349,2.829l1.331-0.771c-0.138-0.697-0.206-1.39-0.206-2.058
							c0-1.965,0.624-3.404,1.754-4.057c1.13-0.653,2.687-0.472,4.386,0.511c3.792,2.186,6.876,7.53,6.876,11.911
							c0,1.095-0.192,2.031-0.56,2.75c-0.292,0.572-0.702,1.005-1.194,1.302c-0.04,0.024-0.079,0.044-0.118,0.064
							c-0.334,0.54-0.565,1.154-0.629,1.734c0.526-0.083,1.027-0.259,1.483-0.521c0.96-0.551,1.656-1.45,2.068-2.618
							c0.277-0.787,0.422-1.699,0.422-2.711C116.964,166.382,113.55,160.464,109.351,158.042z"/>
					</g>
					<g id="XMLID_3700_">
						<path id="XMLID_3704_" style="fill:#37474F;" d="M124.656,168.363c1.101-0.637,1.994-0.121,1.994,1.151
							c0,1.273-0.893,2.82-1.994,3.456c-1.101,0.636-1.994,0.12-1.994-1.151S123.555,169,124.656,168.363z"/>
						<path id="XMLID_3701_" style="fill:#27DEBF;" d="M119.041,152.447c-2.171-1.253-4.254-1.434-5.86-0.506
							c-1.606,0.923-2.49,2.819-2.49,5.329c0,0.914,0.123,1.867,0.349,2.829l1.331-0.771c-0.138-0.697-0.206-1.39-0.206-2.058
							c0-1.965,0.624-3.404,1.754-4.057s2.687-0.472,4.386,0.511c3.792,2.186,6.876,7.53,6.876,11.911
							c0,1.095-0.192,2.031-0.56,2.751c-0.292,0.571-0.702,1.004-1.193,1.302c-0.04,0.024-0.079,0.044-0.118,0.064
							c-0.334,0.54-0.565,1.154-0.629,1.734c0.526-0.083,1.027-0.259,1.483-0.521c0.96-0.551,1.656-1.45,2.068-2.618
							c0.277-0.787,0.422-1.699,0.422-2.711C126.654,160.787,123.241,154.868,119.041,152.447z"/>
					</g>
					<g id="XMLID_3696_">
						<path id="XMLID_3698_" style="fill:#37474F;" d="M134.347,162.768c1.101-0.637,1.994-0.122,1.994,1.151
							s-0.893,2.82-1.994,3.456c-1.101,0.636-1.994,0.121-1.994-1.151C132.352,164.952,133.245,163.405,134.347,162.768z"/>
						<path id="XMLID_3697_" style="fill:#27DEBF;" d="M128.731,146.852c-2.171-1.253-4.253-1.434-5.86-0.506
							c-1.606,0.923-2.49,2.819-2.49,5.329c0,0.914,0.123,1.867,0.349,2.829l1.331-0.771c-0.138-0.697-0.206-1.39-0.206-2.058
							c0-1.965,0.624-3.404,1.754-4.057c1.13-0.653,2.687-0.472,4.386,0.511c3.792,2.186,6.876,7.53,6.876,11.911
							c0,1.095-0.192,2.031-0.56,2.751c-0.292,0.571-0.702,1.005-1.193,1.302c-0.04,0.024-0.079,0.044-0.118,0.064
							c-0.334,0.54-0.565,1.154-0.629,1.734c0.526-0.083,1.027-0.259,1.483-0.521c0.96-0.552,1.656-1.45,2.068-2.618
							c0.277-0.787,0.422-1.699,0.422-2.711C136.345,155.192,132.931,149.273,128.731,146.852z"/>
					</g>
					<g id="XMLID_3629_">
						<path id="XMLID_3695_" style="fill:#37474F;" d="M144.037,157.173c1.101-0.637,1.994-0.121,1.994,1.151
							c0,1.273-0.893,2.82-1.994,3.456c-1.102,0.636-1.994,0.12-1.994-1.151C142.043,159.357,142.936,157.81,144.037,157.173z"/>
						<path id="XMLID_3630_" style="fill:#27DEBF;" d="M138.422,141.257c-2.171-1.253-4.254-1.434-5.86-0.506
							c-1.606,0.923-2.49,2.819-2.49,5.329c0,0.914,0.123,1.866,0.349,2.829l1.331-0.771c-0.138-0.698-0.206-1.39-0.206-2.058
							c0-1.965,0.624-3.404,1.753-4.057c1.13-0.653,2.687-0.471,4.386,0.511c3.792,2.186,6.876,7.53,6.876,11.911
							c0,1.095-0.192,2.031-0.56,2.751c-0.292,0.571-0.702,1.005-1.193,1.302c-0.04,0.024-0.079,0.044-0.118,0.064
							c-0.334,0.54-0.565,1.154-0.629,1.734c0.526-0.083,1.027-0.259,1.483-0.521c0.96-0.551,1.656-1.45,2.068-2.618
							c0.277-0.787,0.422-1.7,0.422-2.711C146.035,149.597,142.622,143.678,138.422,141.257z"/>
					</g>
					<g id="XMLID_739_">
						<path id="XMLID_3628_" style="fill:#37474F;" d="M153.728,151.578c1.102-0.637,1.994-0.121,1.994,1.152
							c0,1.273-0.893,2.82-1.994,3.456c-1.101,0.636-1.994,0.12-1.994-1.151S152.626,152.215,153.728,151.578z"/>
						<path id="XMLID_3620_" style="fill:#27DEBF;" d="M148.112,135.662c-2.171-1.253-4.253-1.434-5.86-0.506
							c-1.606,0.923-2.49,2.819-2.49,5.329c0,0.914,0.123,1.866,0.349,2.829l1.331-0.771c-0.138-0.697-0.206-1.39-0.206-2.058
							c0-1.965,0.624-3.404,1.754-4.057s2.687-0.471,4.386,0.511c3.792,2.186,6.876,7.53,6.876,11.911
							c0,1.095-0.192,2.031-0.56,2.751c-0.292,0.571-0.702,1.005-1.194,1.302c-0.04,0.024-0.079,0.044-0.118,0.064
							c-0.334,0.54-0.565,1.154-0.629,1.734c0.526-0.083,1.027-0.259,1.483-0.521c0.96-0.551,1.656-1.45,2.068-2.618
							c0.277-0.787,0.422-1.699,0.422-2.711C155.726,144.002,152.312,138.083,148.112,135.662z"/>
					</g>
					<g id="XMLID_698_">
						<path id="XMLID_738_" style="fill:#37474F;" d="M163.418,145.983c1.101-0.637,1.994-0.121,1.994,1.151
							c0,1.273-0.893,2.82-1.994,3.456c-1.102,0.636-1.994,0.12-1.994-1.151C161.424,148.167,162.317,146.62,163.418,145.983z"/>
						<path id="XMLID_726_" style="fill:#27DEBF;" d="M157.803,130.067c-2.171-1.253-4.254-1.434-5.86-0.506
							c-1.606,0.923-2.49,2.819-2.49,5.329c0,0.913,0.123,1.866,0.349,2.829l1.331-0.771c-0.137-0.698-0.206-1.39-0.206-2.058
							c0-1.965,0.624-3.404,1.753-4.057c1.13-0.653,2.687-0.472,4.386,0.511c3.792,2.186,6.876,7.53,6.876,11.911
							c0,1.095-0.192,2.031-0.56,2.751c-0.292,0.571-0.702,1.005-1.193,1.302c-0.04,0.024-0.079,0.044-0.118,0.064
							c-0.334,0.54-0.565,1.154-0.629,1.734c0.526-0.083,1.027-0.259,1.483-0.521c0.96-0.551,1.656-1.45,2.068-2.618
							c0.277-0.787,0.422-1.699,0.422-2.711C165.416,138.407,162.002,132.488,157.803,130.067z"/>
					</g>
					<g id="XMLID_650_">
						<path id="XMLID_669_" style="fill:#37474F;" d="M173.109,140.388c1.102-0.637,1.994-0.121,1.994,1.151
							c0,1.273-0.893,2.82-1.994,3.456c-1.101,0.636-1.994,0.12-1.994-1.151C171.114,142.572,172.007,141.025,173.109,140.388z"/>
						<path id="XMLID_668_" style="fill:#27DEBF;" d="M167.493,124.472c-2.171-1.253-4.253-1.434-5.86-0.506
							c-1.606,0.923-2.49,2.819-2.49,5.329c0,0.914,0.123,1.866,0.349,2.829l1.331-0.771c-0.138-0.697-0.206-1.39-0.206-2.058
							c0-1.965,0.624-3.404,1.754-4.057c1.13-0.653,2.687-0.472,4.386,0.511c3.792,2.186,6.876,7.53,6.876,11.911
							c0,1.095-0.197,2.029-0.56,2.751c-0.295,0.57-0.697,1.012-1.194,1.302c-0.039,0.025-0.079,0.044-0.118,0.064
							c-0.334,0.54-0.565,1.154-0.629,1.734c0.526-0.083,1.026-0.26,1.483-0.521c0.958-0.555,1.66-1.449,2.068-2.618
							c0.28-0.786,0.422-1.7,0.422-2.711C175.107,132.812,171.693,126.893,167.493,124.472z"/>
					</g>
					<g id="XMLID_1020_">
						<path id="XMLID_1022_" style="fill:#37474F;" d="M182.799,134.792c1.102-0.637,1.994-0.121,1.994,1.151
							c0,1.273-0.893,2.82-1.994,3.456c-1.101,0.636-1.994,0.12-1.994-1.152C180.805,136.977,181.698,135.429,182.799,134.792z"/>
						<path id="XMLID_1021_" style="fill:#27DEBF;" d="M177.184,118.876c-2.171-1.253-4.254-1.434-5.86-0.506
							c-1.606,0.923-2.49,2.819-2.49,5.329c0,0.914,0.123,1.866,0.349,2.829l1.331-0.771c-0.137-0.697-0.206-1.39-0.206-2.058
							c0-1.965,0.624-3.404,1.753-4.057c1.13-0.653,2.687-0.472,4.386,0.511c3.792,2.186,6.876,7.53,6.876,11.911
							c0,1.095-0.193,2.031-0.56,2.751c-0.292,0.571-0.702,1.005-1.194,1.302c-0.04,0.024-0.079,0.044-0.118,0.064
							c-0.334,0.54-0.565,1.154-0.629,1.734c0.526-0.083,1.027-0.259,1.483-0.521c0.96-0.551,1.656-1.45,2.068-2.618
							c0.277-0.787,0.422-1.7,0.422-2.711C184.797,127.216,181.383,121.298,177.184,118.876z"/>
					</g>
					<g id="XMLID_1017_">
						<path id="XMLID_1019_" style="fill:#37474F;" d="M192.49,129.197c1.102-0.637,1.994-0.122,1.994,1.151
							s-0.893,2.82-1.994,3.456c-1.101,0.636-1.994,0.12-1.994-1.151C190.495,131.382,191.388,129.834,192.49,129.197z"/>
						<path id="XMLID_1018_" style="fill:#27DEBF;" d="M186.874,113.281c-2.171-1.253-4.253-1.434-5.86-0.506
							c-1.606,0.923-2.49,2.819-2.49,5.329c0,0.914,0.123,1.866,0.349,2.829l1.331-0.771c-0.137-0.697-0.206-1.39-0.206-2.058
							c0-1.965,0.624-3.404,1.754-4.057c1.13-0.653,2.687-0.472,4.386,0.511c3.792,2.186,6.876,7.53,6.876,11.911
							c0,1.095-0.192,2.031-0.56,2.751c-0.292,0.571-0.702,1.005-1.193,1.302c-0.04,0.024-0.079,0.044-0.118,0.064
							c-0.334,0.54-0.565,1.154-0.629,1.734c0.526-0.084,1.027-0.259,1.483-0.521c0.96-0.551,1.656-1.45,2.068-2.618
							c0.277-0.787,0.422-1.7,0.422-2.711C194.487,121.621,191.074,115.703,186.874,113.281z"/>
					</g>
					<g id="XMLID_272_">
						<path id="XMLID_282_" style="fill:#37474F;" d="M202.18,123.602c1.101-0.637,1.994-0.121,1.994,1.151
							c0,1.273-0.893,2.82-1.994,3.456c-1.101,0.636-1.994,0.12-1.994-1.151C200.186,125.787,201.079,124.239,202.18,123.602z"/>
						<path id="XMLID_281_" style="fill:#27DEBF;" d="M196.565,107.686c-2.171-1.253-4.253-1.434-5.86-0.506
							c-1.606,0.923-2.49,2.819-2.49,5.329c0,0.914,0.123,1.866,0.349,2.829l1.331-0.771c-0.137-0.697-0.206-1.39-0.206-2.058
							c0-1.965,0.624-3.404,1.753-4.057c1.13-0.653,2.687-0.471,4.386,0.511c3.792,2.186,6.876,7.53,6.876,11.911
							c0,1.095-0.196,2.029-0.56,2.751c-0.295,0.57-0.697,1.012-1.193,1.302c-0.039,0.024-0.079,0.044-0.118,0.064
							c-0.334,0.54-0.565,1.154-0.629,1.734c0.526-0.083,1.026-0.26,1.483-0.521c0.958-0.555,1.66-1.449,2.068-2.618
							c0.28-0.786,0.422-1.7,0.422-2.711C204.178,116.026,200.764,110.108,196.565,107.686z"/>
					</g>
					<g id="XMLID_1190_">
						<path id="XMLID_1197_" style="fill:#37474F;" d="M211.86,118.01c1.101-0.637,1.994-0.121,1.994,1.151
							c0,1.273-0.893,2.82-1.994,3.456c-1.102,0.636-1.994,0.12-1.994-1.151C209.865,120.194,210.758,118.647,211.86,118.01z"/>
						<path id="XMLID_1196_" style="fill:#27DEBF;" d="M206.245,102.094c-2.171-1.253-4.254-1.434-5.86-0.506
							c-1.606,0.923-2.49,2.819-2.49,5.329c0,0.914,0.123,1.866,0.349,2.829l1.331-0.771c-0.137-0.697-0.206-1.39-0.206-2.058
							c0-1.965,0.624-3.404,1.753-4.057c1.13-0.653,2.687-0.472,4.386,0.511c3.792,2.186,6.876,7.53,6.876,11.911
							c0,1.095-0.192,2.031-0.56,2.751c-0.292,0.571-0.702,1.005-1.193,1.302c-0.04,0.024-0.079,0.044-0.118,0.064
							c-0.334,0.54-0.565,1.154-0.629,1.734c0.526-0.084,1.027-0.259,1.483-0.521c0.96-0.551,1.656-1.45,2.068-2.618
							c0.277-0.787,0.422-1.699,0.422-2.711C213.858,110.434,210.444,104.515,206.245,102.094z"/>
					</g>
					<g id="XMLID_1186_">
						<path id="XMLID_1189_" style="fill:#37474F;" d="M221.55,112.415c1.102-0.637,1.994-0.122,1.994,1.151
							c0,1.273-0.893,2.82-1.994,3.456c-1.101,0.636-1.994,0.121-1.994-1.151C219.556,114.599,220.449,113.052,221.55,112.415z"/>
						<path id="XMLID_1187_" style="fill:#27DEBF;" d="M215.935,96.499c-2.171-1.253-4.254-1.434-5.86-0.506
							c-1.606,0.923-2.49,2.819-2.49,5.329c0,0.914,0.123,1.866,0.349,2.829l1.331-0.771c-0.137-0.697-0.206-1.39-0.206-2.058
							c0-1.965,0.624-3.404,1.754-4.057c1.13-0.653,2.687-0.471,4.386,0.511c3.792,2.186,6.876,7.53,6.876,11.911
							c0,1.095-0.197,2.029-0.56,2.751c-0.295,0.57-0.697,1.012-1.193,1.302c-0.039,0.024-0.079,0.044-0.118,0.064
							c-0.334,0.54-0.565,1.154-0.629,1.734c0.526-0.083,1.027-0.26,1.483-0.521c0.958-0.555,1.66-1.449,2.068-2.618
							c0.28-0.786,0.422-1.699,0.422-2.711C223.548,104.839,220.134,98.92,215.935,96.499z"/>
					</g>
					<g id="XMLID_1150_">
						<path id="XMLID_1172_" style="fill:#37474F;" d="M231.241,106.82c1.102-0.637,1.994-0.122,1.994,1.151
							c0,1.273-0.893,2.82-1.994,3.456c-1.101,0.636-1.994,0.12-1.994-1.151C229.246,109.004,230.139,107.457,231.241,106.82z"/>
						<path id="XMLID_1152_" style="fill:#27DEBF;" d="M225.625,90.904c-2.171-1.253-4.253-1.434-5.86-0.506
							c-1.606,0.923-2.49,2.819-2.49,5.329c0,0.914,0.123,1.866,0.349,2.829l1.331-0.771c-0.137-0.697-0.206-1.39-0.206-2.058
							c0-1.965,0.624-3.404,1.754-4.057c1.13-0.653,2.687-0.472,4.386,0.511c3.792,2.186,6.876,7.53,6.876,11.911
							c0,1.095-0.193,2.031-0.56,2.751c-0.292,0.571-0.702,1.004-1.194,1.302c-0.04,0.024-0.079,0.044-0.118,0.064
							c-0.334,0.54-0.565,1.154-0.629,1.734c0.526-0.083,1.027-0.259,1.483-0.521c0.96-0.552,1.656-1.45,2.068-2.618
							c0.277-0.787,0.422-1.699,0.422-2.711C233.239,99.244,229.825,93.325,225.625,90.904z"/>
					</g>
					<g id="XMLID_1147_">
						<path id="XMLID_1149_" style="fill:#37474F;" d="M240.931,101.225c1.101-0.637,1.994-0.121,1.994,1.151
							c0,1.273-0.893,2.82-1.994,3.456c-1.101,0.636-1.994,0.12-1.994-1.151C238.937,103.409,239.83,101.862,240.931,101.225z"/>
						<path id="XMLID_1148_" style="fill:#27DEBF;" d="M235.316,85.309c-2.171-1.253-4.254-1.434-5.86-0.506
							c-1.606,0.923-2.49,2.819-2.49,5.329c0,0.914,0.123,1.866,0.349,2.829l1.331-0.771c-0.137-0.697-0.206-1.39-0.206-2.058
							c0-1.965,0.624-3.404,1.753-4.057c1.13-0.653,2.687-0.472,4.386,0.511c3.792,2.186,6.876,7.53,6.876,11.911
							c0,1.095-0.192,2.031-0.56,2.751c-0.292,0.571-0.702,1.005-1.193,1.302c-0.04,0.024-0.079,0.044-0.118,0.064
							c-0.334,0.54-0.565,1.154-0.629,1.734c0.526-0.083,1.027-0.259,1.483-0.521c0.96-0.551,1.656-1.45,2.068-2.618
							c0.277-0.787,0.422-1.7,0.422-2.711C242.929,93.648,239.515,87.73,235.316,85.309z"/>
					</g>
					<g id="XMLID_495_">
						<path id="XMLID_1050_" style="fill:#37474F;" d="M250.622,95.63c1.101-0.637,1.994-0.121,1.994,1.151
							c0,1.273-0.893,2.82-1.994,3.456c-1.101,0.636-1.994,0.121-1.994-1.151C248.627,97.814,249.52,96.266,250.622,95.63z"/>
						<path id="XMLID_647_" style="fill:#27DEBF;" d="M245.006,79.713c-2.171-1.253-4.253-1.434-5.86-0.506
							c-1.606,0.923-2.49,2.819-2.49,5.329c0,0.914,0.123,1.867,0.349,2.829l1.331-0.771c-0.138-0.697-0.206-1.39-0.206-2.058
							c0-1.965,0.624-3.404,1.753-4.057c1.13-0.653,2.687-0.471,4.386,0.511c3.792,2.186,6.876,7.53,6.876,11.911
							c0,1.095-0.196,2.029-0.56,2.751c-0.295,0.57-0.697,1.012-1.194,1.302c-0.039,0.024-0.079,0.044-0.118,0.064
							c-0.334,0.54-0.565,1.154-0.629,1.734c0.526-0.083,1.027-0.26,1.483-0.521c0.958-0.555,1.66-1.449,2.068-2.618
							c0.28-0.786,0.422-1.699,0.422-2.711C252.62,88.053,249.206,82.135,245.006,79.713z"/>
					</g>
				</g>
			</g>
			<path id="XMLID_1227_" style="opacity:0.4;" d="M245.006,79.713c-2.171-1.253-4.253-1.434-5.859-0.506
				c-1.606,0.923-2.49,2.819-2.49,5.329c0,0.59,0.068,1.2,0.165,1.814c-0.487-0.394-0.99-0.745-1.506-1.043
				c-2.171-1.253-4.254-1.434-5.86-0.506c-1.606,0.923-2.49,2.819-2.49,5.329c0,0.59,0.068,1.2,0.165,1.814
				c-0.487-0.394-0.99-0.745-1.506-1.043c-2.171-1.253-4.254-1.434-5.86-0.506c-1.606,0.923-2.49,2.819-2.49,5.329
				c0,0.59,0.068,1.2,0.165,1.815c-0.487-0.394-0.99-0.745-1.506-1.043c-2.171-1.253-4.254-1.434-5.86-0.506
				c-1.606,0.923-2.49,2.819-2.49,5.329c0,0.59,0.068,1.2,0.165,1.814c-0.487-0.394-0.99-0.745-1.506-1.043
				c-2.171-1.252-4.253-1.434-5.86-0.506c-1.606,0.923-2.49,2.819-2.49,5.329c0,0.586,0.067,1.191,0.163,1.802
				c-0.483-0.39-0.982-0.738-1.493-1.033c-2.171-1.253-4.253-1.434-5.859-0.506c-1.606,0.923-2.49,2.819-2.49,5.329
				c0,0.59,0.068,1.199,0.165,1.814c-0.487-0.394-0.99-0.745-1.506-1.043c-2.171-1.253-4.253-1.434-5.86-0.506
				c-1.606,0.923-2.49,2.819-2.49,5.329c0,0.59,0.068,1.2,0.165,1.814c-0.487-0.394-0.99-0.745-1.506-1.043
				c-2.171-1.253-4.253-1.434-5.859-0.506c-1.606,0.923-2.49,2.819-2.49,5.329c0,0.59,0.068,1.2,0.165,1.815
				c-0.487-0.394-0.99-0.745-1.506-1.043c-2.171-1.252-4.253-1.434-5.859-0.506c-1.606,0.923-2.49,2.819-2.49,5.329
				c0,0.59,0.068,1.199,0.165,1.814c-0.487-0.394-0.99-0.745-1.506-1.043c-2.171-1.253-4.254-1.434-5.86-0.506
				c-1.606,0.923-2.49,2.819-2.49,5.329c0,0.59,0.068,1.2,0.165,1.815c-0.487-0.394-0.99-0.746-1.506-1.043
				c-2.171-1.252-4.253-1.434-5.86-0.506c-1.606,0.923-2.49,2.819-2.49,5.329c0,0.59,0.068,1.199,0.165,1.814
				c-0.487-0.394-0.991-0.745-1.506-1.043c-2.171-1.253-4.253-1.434-5.86-0.506c-1.606,0.923-2.49,2.819-2.49,5.329
				c0,0.59,0.068,1.199,0.165,1.814c-0.487-0.394-0.99-0.745-1.506-1.043c-2.171-1.253-4.254-1.434-5.859-0.506
				c-1.606,0.923-2.49,2.819-2.49,5.329c0,0.59,0.068,1.2,0.165,1.814c-0.487-0.394-0.991-0.745-1.506-1.043
				c-2.171-1.253-4.254-1.434-5.859-0.506c-1.606,0.923-2.49,2.819-2.49,5.329c0,0.59,0.068,1.199,0.165,1.814
				c-0.487-0.394-0.99-0.745-1.506-1.043c-2.171-1.253-4.254-1.434-5.86-0.506c-1.606,0.923-2.49,2.819-2.49,5.329
				c0,0.59,0.068,1.2,0.165,1.814c-0.487-0.394-0.99-0.745-1.506-1.043c-2.171-1.253-4.254-1.434-5.86-0.506
				c-1.606,0.923-2.49,2.819-2.49,5.329c0,0.913,0.123,1.867,0.349,2.829l1.331-0.771c-0.137-0.697-0.206-1.39-0.206-2.058
				c0-1.965,0.624-3.404,1.754-4.057c1.13-0.653,2.687-0.471,4.386,0.511c3.792,2.186,6.876,7.53,6.876,11.911
				c0,1.095-0.196,2.028-0.56,2.751c-0.295,0.57-0.697,1.012-1.193,1.302c-0.039,0.025-0.079,0.044-0.118,0.064
				c-0.334,0.54-0.565,1.154-0.629,1.734c0.526-0.084,1.026-0.26,1.483-0.521c0.958-0.555,1.66-1.449,2.068-2.618
				c0.28-0.786,0.422-1.699,0.422-2.711c0-3.932-2.246-8.568-5.335-11.471l0.743-0.43c-0.137-0.697-0.206-1.39-0.206-2.058
				c0-1.965,0.624-3.404,1.753-4.057c1.13-0.653,2.687-0.472,4.386,0.511c3.792,2.186,6.876,7.53,6.876,11.911
				c0,1.095-0.193,2.031-0.56,2.75c-0.292,0.571-0.702,1.005-1.194,1.302c-0.04,0.024-0.079,0.044-0.118,0.064
				c-0.334,0.54-0.565,1.154-0.629,1.734c0.526-0.083,1.027-0.259,1.483-0.521c0.96-0.551,1.656-1.45,2.068-2.618
				c0.277-0.787,0.422-1.699,0.422-2.711c0-3.932-2.246-8.568-5.335-11.471l0.743-0.43c-0.138-0.697-0.206-1.39-0.206-2.058
				c0-1.965,0.624-3.404,1.754-4.057c1.13-0.653,2.687-0.472,4.386,0.511c3.792,2.186,6.876,7.53,6.876,11.911
				c0,1.095-0.193,2.031-0.56,2.751c-0.292,0.572-0.702,1.005-1.193,1.302c-0.04,0.024-0.079,0.044-0.118,0.064
				c-0.334,0.54-0.565,1.154-0.629,1.734c0.526-0.083,1.028-0.259,1.484-0.521c0.96-0.551,1.656-1.45,2.068-2.618
				c0.277-0.787,0.422-1.699,0.422-2.711c0-3.932-2.246-8.568-5.335-11.471l0.743-0.43c-0.138-0.697-0.206-1.39-0.206-2.058
				c0-1.965,0.624-3.404,1.754-4.057c1.13-0.653,2.687-0.471,4.386,0.511c3.792,2.186,6.876,7.53,6.876,11.911
				c0,1.095-0.192,2.031-0.56,2.751c-0.292,0.571-0.702,1.005-1.193,1.302c-0.04,0.024-0.079,0.044-0.118,0.064
				c-0.334,0.54-0.565,1.154-0.629,1.734c0.526-0.083,1.028-0.259,1.483-0.521c0.96-0.552,1.656-1.45,2.068-2.618
				c0.277-0.787,0.422-1.699,0.422-2.711c0-3.932-2.246-8.568-5.335-11.471l0.743-0.43c-0.137-0.698-0.206-1.39-0.206-2.058
				c0-1.965,0.624-3.404,1.753-4.057c1.13-0.653,2.687-0.472,4.386,0.511c3.792,2.186,6.876,7.53,6.876,11.911
				c0,1.095-0.192,2.031-0.56,2.751c-0.291,0.571-0.702,1.005-1.193,1.302c-0.04,0.024-0.079,0.044-0.118,0.064
				c-0.334,0.54-0.565,1.154-0.629,1.734c0.526-0.083,1.027-0.259,1.484-0.521c0.96-0.552,1.656-1.45,2.068-2.618
				c0.277-0.787,0.422-1.699,0.422-2.711c0-3.932-2.246-8.568-5.335-11.471l0.743-0.43c-0.138-0.697-0.207-1.39-0.207-2.058
				c0-1.965,0.624-3.404,1.754-4.057c1.13-0.653,2.687-0.471,4.386,0.511c3.792,2.186,6.876,7.53,6.876,11.911
				c0,1.095-0.193,2.031-0.56,2.751c-0.292,0.571-0.702,1.005-1.193,1.301c-0.04,0.024-0.079,0.044-0.118,0.064
				c-0.334,0.54-0.565,1.154-0.629,1.734c0.526-0.084,1.027-0.259,1.483-0.521c0.96-0.551,1.656-1.45,2.068-2.618
				c0.277-0.787,0.422-1.699,0.422-2.711c0-3.932-2.246-8.568-5.336-11.471l0.743-0.43c-0.137-0.698-0.206-1.39-0.206-2.058
				c0-1.965,0.624-3.404,1.753-4.057c1.13-0.653,2.687-0.472,4.386,0.511c3.792,2.186,6.876,7.53,6.876,11.911
				c0,1.095-0.193,2.031-0.56,2.751c-0.292,0.571-0.702,1.005-1.194,1.302c-0.04,0.024-0.078,0.044-0.118,0.064
				c-0.334,0.54-0.565,1.154-0.629,1.734c0.525-0.083,1.027-0.259,1.483-0.521c0.96-0.552,1.656-1.45,2.068-2.618
				c0.277-0.787,0.422-1.699,0.422-2.711c0-3.932-2.246-8.568-5.336-11.471l0.743-0.43c-0.137-0.697-0.206-1.39-0.206-2.058
				c0-1.965,0.624-3.404,1.754-4.057c1.13-0.653,2.687-0.472,4.386,0.511c3.792,2.186,6.876,7.53,6.876,11.911
				c0,1.095-0.196,2.029-0.56,2.751c-0.295,0.57-0.697,1.012-1.194,1.302c-0.039,0.025-0.079,0.044-0.118,0.064
				c-0.334,0.54-0.565,1.154-0.629,1.734c0.526-0.083,1.026-0.26,1.483-0.521c0.958-0.555,1.66-1.449,2.068-2.618
				c0.28-0.786,0.422-1.7,0.422-2.711c0-3.932-2.246-8.568-5.335-11.471l0.743-0.43c-0.137-0.697-0.206-1.39-0.206-2.058
				c0-1.965,0.624-3.404,1.754-4.057c1.13-0.653,2.687-0.472,4.386,0.511c3.792,2.186,6.876,7.53,6.876,11.911
				c0,1.095-0.192,2.031-0.56,2.751c-0.291,0.572-0.702,1.005-1.193,1.302c-0.04,0.024-0.079,0.044-0.118,0.064
				c-0.334,0.54-0.565,1.154-0.629,1.734c0.525-0.083,1.027-0.259,1.483-0.521c0.96-0.552,1.656-1.45,2.068-2.618
				c0.277-0.787,0.422-1.699,0.422-2.711c0-3.932-2.246-8.568-5.335-11.472l0.743-0.43c-0.137-0.697-0.206-1.39-0.206-2.058
				c0-1.965,0.624-3.404,1.753-4.057c1.13-0.653,2.687-0.472,4.386,0.511c3.792,2.186,6.876,7.53,6.876,11.911
				c0,1.095-0.193,2.031-0.56,2.751c-0.292,0.571-0.702,1.005-1.193,1.302c-0.04,0.024-0.079,0.044-0.118,0.064
				c-0.334,0.54-0.565,1.154-0.629,1.734c0.525-0.084,1.027-0.259,1.483-0.521c0.96-0.551,1.656-1.45,2.068-2.618
				c0.277-0.787,0.422-1.7,0.422-2.711c0-3.932-2.246-8.568-5.335-11.471l0.743-0.43c-0.138-0.697-0.207-1.39-0.207-2.058
				c0-1.965,0.624-3.404,1.754-4.057c1.13-0.653,2.687-0.471,4.386,0.511c3.792,2.186,6.876,7.53,6.876,11.911
				c0,1.095-0.197,2.029-0.56,2.751c-0.295,0.57-0.697,1.012-1.193,1.302c-0.039,0.024-0.079,0.044-0.118,0.064
				c-0.334,0.54-0.565,1.154-0.629,1.734c0.525-0.083,1.026-0.26,1.483-0.521c0.958-0.555,1.66-1.449,2.068-2.618
				c0.28-0.786,0.422-1.699,0.422-2.711c0-3.933-2.247-8.57-5.338-11.474l0.734-0.425c-0.137-0.697-0.206-1.39-0.206-2.058
				c0-1.965,0.624-3.404,1.753-4.057c1.13-0.653,2.687-0.472,4.386,0.511c3.792,2.186,6.876,7.53,6.876,11.911
				c0,1.095-0.193,2.031-0.56,2.751c-0.292,0.571-0.702,1.005-1.194,1.302c-0.04,0.024-0.079,0.044-0.118,0.064
				c-0.334,0.54-0.565,1.154-0.629,1.734c0.526-0.084,1.027-0.259,1.483-0.521c0.96-0.551,1.656-1.45,2.068-2.618
				c0.277-0.787,0.422-1.699,0.422-2.711c0-3.932-2.246-8.568-5.335-11.471l0.743-0.43c-0.137-0.697-0.206-1.39-0.206-2.058
				c0-1.965,0.624-3.404,1.754-4.057c1.13-0.653,2.686-0.471,4.386,0.511c3.792,2.186,6.876,7.53,6.876,11.911
				c0,1.095-0.197,2.029-0.56,2.751c-0.295,0.57-0.697,1.012-1.193,1.302c-0.04,0.024-0.079,0.044-0.118,0.064
				c-0.334,0.54-0.565,1.154-0.629,1.734c0.526-0.083,1.027-0.26,1.483-0.521c0.958-0.555,1.66-1.449,2.068-2.618
				c0.28-0.786,0.422-1.7,0.422-2.711c0-3.932-2.246-8.568-5.335-11.471l0.743-0.43c-0.137-0.697-0.206-1.39-0.206-2.058
				c0-1.965,0.624-3.404,1.753-4.057c1.13-0.653,2.687-0.472,4.386,0.511c3.792,2.186,6.876,7.53,6.876,11.911
				c0,1.095-0.192,2.031-0.56,2.751c-0.291,0.571-0.702,1.004-1.193,1.302c-0.039,0.024-0.079,0.044-0.118,0.064
				c-0.334,0.54-0.565,1.154-0.629,1.734c0.525-0.083,1.027-0.259,1.483-0.521c0.96-0.551,1.656-1.45,2.068-2.618
				c0.277-0.787,0.422-1.699,0.422-2.711c0-3.932-2.246-8.568-5.335-11.471l0.743-0.43c-0.137-0.697-0.206-1.39-0.206-2.058
				c0-1.965,0.624-3.404,1.753-4.057c1.13-0.653,2.687-0.472,4.386,0.511c3.792,2.186,6.876,7.53,6.876,11.911
				c0,1.095-0.192,2.031-0.56,2.751c-0.292,0.571-0.702,1.005-1.194,1.302c-0.04,0.024-0.079,0.044-0.118,0.064
				c-0.334,0.54-0.565,1.154-0.629,1.734c0.525-0.083,1.027-0.259,1.483-0.521c0.96-0.551,1.656-1.45,2.068-2.618
				c0.277-0.787,0.422-1.699,0.422-2.711c0-3.932-2.246-8.568-5.335-11.471l0.743-0.43c-0.137-0.697-0.206-1.39-0.206-2.058
				c0-1.965,0.624-3.404,1.754-4.057c1.13-0.653,2.687-0.471,4.386,0.511c3.792,2.186,6.876,7.53,6.876,11.911
				c0,1.095-0.197,2.029-0.56,2.751c-0.295,0.57-0.698,1.012-1.194,1.302c-0.039,0.024-0.079,0.044-0.118,0.064
				c-0.334,0.54-0.565,1.154-0.629,1.734c0.525-0.083,1.026-0.26,1.483-0.521c0.958-0.555,1.66-1.449,2.068-2.618
				c0.28-0.786,0.422-1.7,0.422-2.711C252.62,88.053,249.206,82.135,245.006,79.713z"/>
		</g>
		<g id="XMLID_1040_">
			<g id="XMLID_273_">
				<path id="XMLID_271_" style="fill:#27DEBF;" d="M114.22,191.537l131.279-75.788c2.291-1.323,4.402-0.265,4.716,2.361
					l2.174,17.958c0.314,2.627-1.29,5.828-3.581,7.15l-131.229,75.72c-2.291,1.322-4.409,0.265-4.73-2.361l-2.196-17.891
					C110.332,196.061,111.929,192.86,114.22,191.537z"/>
				<g id="XMLID_432_">
					<path id="XMLID_433_" style="fill:#FAFAFA;" d="M125.931,205.813l-1.732,1.361l-2.391-11.595l-0.523,11.562l1.224-0.41
						l-0.083,1.233l-3.45,1.992l0.082-1.233l1.128-0.947l0.549-12.148l-1.154,0.306l0.082-1.19l3.561-2.055l2.131,10.622
						l2.364-13.217l3.533-2.04l-0.082,1.232l-0.99,0.868l0.275,11.715l1.21-0.424l-0.082,1.233l-4.055,2.342l0.082-1.233
						l1.127-0.925l-0.234-11.402L125.931,205.813z"/>
					<path id="XMLID_455_" style="fill:#FAFAFA;" d="M133.811,206.239c-0.771,0.444-1.293,0.132-1.293-0.778
						c0-1.143,0.441-1.989,1.168-2.495l0.179,0.596c0.137,0.407,0.275,0.751,0.618,0.553c0.343-0.198,0.55-0.826,0.77-1.693
						l0.564-2.188l-0.357,0.206c-0.55,0.318-0.907,0.122-1.251-0.526c-0.468-0.916-0.743-3-0.743-5.709l0.013-1.617
						c0-0.443-0.095-0.537-0.302-0.417c-0.206,0.119-0.495,0.455-0.701,0.679l-0.22-1.037c0.302-0.428,1.072-1.297,1.746-1.685
						c0.935-0.54,1.224,0.119,1.224,1.241c0,0.487-0.028,0.968-0.028,1.603c0,2.476,0.193,3.995,0.509,4.977
						c0.166,0.518,0.343,0.499,0.536,0.388l0.055-0.032l1.472-6.352c0.288-1.246,0.136-1.456-0.317-1.446l-0.481,0.002
						c-0.165-1.281,0.399-2.326,1.072-2.715c0.674-0.388,1.113-0.008,1.113,1.177c0,1.293-0.426,3.04-0.92,5.083l-1.734,6.99
						C135.9,203.508,135.309,205.373,133.811,206.239z"/>
					<path id="XMLID_823_" style="fill:#FAFAFA;" d="M144.452,194.549l0.343-14.147l-1.099,0.191l0.082-1.19l2.419-1.398
						l0.221,0.105l-0.166,7.102l-0.413,5.212l0.11-0.021l0.508-3.215c0.523-3.285,1.1-4.889,2.42-5.65
						c1.485-0.857,2.144,0.602,2.144,3.396c0,4.402-1.458,7.658-3.602,8.897C146.5,194.361,145.044,194.737,144.452,194.549z
						 M146.899,189.538l-0.522,3.01c0.193,0.058,0.482,0.124,1.031-0.193c1.279-0.738,1.774-3.648,1.774-6.21
						c0-1.291,0-2.9-0.632-2.535C147.806,184.04,147.586,185.521,146.899,189.538z"/>
					<path id="XMLID_971_" style="fill:#FAFAFA;" d="M152.316,175.616l0.11-1.207l2.475-1.428l0.22,0.106l-0.303,13.932
						c-0.013,0.579,0.055,0.857,0.357,0.682c0.234-0.135,0.482-0.488,0.729-0.886l0.317,0.834c-0.276,0.539-1.059,1.712-1.829,2.156
						c-0.852,0.492-1.334,0.071-1.292-1.455l0.343-12.942L152.316,175.616z"/>
					<path id="XMLID_1014_" style="fill:#FAFAFA;" d="M160.538,174.806c2.076-1.197,3.01,0.464,3.01,3.617
						c0,3.218-0.99,6.667-3.409,8.064c-1.952,1.127-3.01-0.337-3.01-3.533C157.129,179.779,158.009,176.267,160.538,174.806z
						 M161.707,179.465c0-2.307-0.22-3.809-1.252-3.214c-1.264,0.731-1.47,3.284-1.47,5.654c0,2.265,0.288,3.664,1.278,3.093
						C161.473,184.299,161.707,182.026,161.707,179.465z"/>
					<path id="XMLID_1023_" style="fill:#FAFAFA;" d="M169.888,174.974l-0.289,1.755c-0.591,3.559-1.1,4.91-2.296,5.6
						c-1.568,0.906-2.241-0.821-2.241-3.342c0-3.957,1.306-7.548,3.313-8.706c0.481-0.278,1.155-0.498,1.691-0.469l0.92-1.061
						l0.55-0.106l-0.22,9.376c-0.082,3.561-1.416,7.401-4.138,8.972c-1.086,0.627-2.228,0.609-2.228-0.937
						c0-0.952,0.413-1.847,1.018-2.197c0.288-0.167,0.742-0.174,0.907,0.069l-0.124,0.621c-0.22,1.059-0.069,1.394,0.646,0.981
						c1.429-0.825,2.186-3.167,2.364-6.507l0.221-4.085L169.888,174.974z M169.241,174.248l0.467-2.832
						c-0.343-0.077-0.576-0.069-0.989,0.169c-1.292,0.746-1.801,3.473-1.801,6.374c0,1.883,0.082,2.83,0.687,2.481
						C168.238,180.075,168.485,178.854,169.241,174.248z"/>
				</g>
				<g id="XMLID_283_">
					<path id="XMLID_417_" style="fill:#FAFAFA;" d="M245.615,129.876l0.025,0.21c0.22,1.839-0.901,4.079-2.505,5.004
						l-61.728,35.604c-1.604,0.925-3.083,0.185-3.304-1.654l-0.022-0.182c-0.221-1.839,0.9-4.079,2.504-5.005l61.727-35.63
						C243.916,127.298,245.394,128.038,245.615,129.876z"/>
					<path id="XMLID_419_" style="fill:#455A64;" d="M238.011,138.046l5.123-2.955c1.604-0.925,2.726-3.166,2.506-5.004l-0.025-0.21
						c-0.22-1.839-1.699-2.579-3.303-1.653l-5.12,2.955L238.011,138.046z"/>
				</g>
			</g>
			<g id="XMLID_284_">
				<path id="XMLID_1007_" style="opacity:0.4;fill:#455A64;" d="M144.341,212.606c0.153,1.28-0.651,2.854-1.796,3.516
					l-25.74,14.858c-1.146,0.661-2.201,0.161-2.357-1.116c-0.156-1.278,0.646-2.85,1.792-3.511l25.75-14.867
					C143.135,210.824,144.187,211.326,144.341,212.606z"/>
				<path id="XMLID_995_" style="opacity:0.4;fill:#455A64;" d="M204.117,178.096c0.153,1.278-0.651,2.85-1.796,3.511
					l-50.666,29.256c-1.145,0.661-2.198,0.16-2.352-1.121c-0.153-1.28,0.651-2.854,1.796-3.516l50.666-29.247
					C202.911,176.318,203.964,176.818,204.117,178.096z"/>
				<path id="XMLID_999_" style="opacity:0.4;fill:#455A64;" d="M252.125,152.859l-40.693,23.489
					c-1.146,0.661-2.199,0.161-2.352-1.116c-0.153-1.278,0.651-2.85,1.796-3.511l40.713-23.508c1.146-0.661,2.194-0.158,2.342,1.125
					C254.079,150.621,253.27,152.197,252.125,152.859z"/>
				<path id="XMLID_1010_" style="opacity:0.4;fill:#455A64;" d="M135.786,229.418c0.153,1.28-0.651,2.854-1.796,3.515
					l-15.786,9.111c-1.146,0.661-2.229,0.176-2.419-1.083c-0.191-1.259,0.584-2.816,1.729-3.477l15.921-9.188
					C134.58,227.636,135.633,228.138,135.786,229.418z"/>
				<path id="XMLID_984_" style="opacity:0.4;fill:#455A64;" d="M185.538,200.694c0.156,1.278-0.646,2.85-1.791,3.511l-40.646,23.47
					c-1.145,0.661-2.198,0.16-2.352-1.121c-0.153-1.28,0.651-2.854,1.796-3.516l40.636-23.46
					C184.326,198.917,185.382,199.416,185.538,200.694z"/>
				<path id="XMLID_994_" style="opacity:0.4;fill:#455A64;" d="M253.523,163.923l-60.667,35.023
					c-1.145,0.661-2.198,0.16-2.352-1.121c-0.153-1.28,0.651-2.854,1.796-3.515l60.561-34.956c1.146-0.661,2.222-0.174,2.405,1.088
					C255.449,161.703,254.669,163.262,253.523,163.923z"/>
				<path id="XMLID_991_" style="opacity:0.4;fill:#455A64;" d="M156.947,228.815c0.154,1.28-0.651,2.854-1.796,3.516
					l-35.588,20.548c-1.145,0.661-2.258,0.194-2.486-1.044c-0.228-1.238,0.517-2.778,1.662-3.439l35.856-20.701
					C155.741,227.033,156.794,227.534,156.947,228.815z"/>
				<path id="XMLID_975_" style="opacity:0.4;fill:#455A64;" d="M221.662,191.455c0.156,1.28-0.646,2.854-1.791,3.515
					l-54.977,31.737c-1.146,0.661-2.199,0.159-2.352-1.121c-0.153-1.28,0.651-2.854,1.796-3.516l54.967-31.737
					C220.451,189.673,221.506,190.174,221.662,191.455z"/>
				<path id="XMLID_983_" style="opacity:0.4;fill:#455A64;" d="M254.883,174.757l-25.903,14.954
					c-1.146,0.661-2.201,0.159-2.357-1.121c-0.156-1.28,0.646-2.854,1.791-3.516l25.673-14.82c1.145-0.661,2.252-0.189,2.471,1.054
					C256.78,172.552,256.029,174.096,254.883,174.757z"/>
				<path id="XMLID_979_" style="opacity:0.4;fill:#455A64;" d="M178.161,227.986c0.156,1.278-0.646,2.85-1.792,3.511
					l-55.465,32.024c-1.145,0.661-2.286,0.211-2.548-1.006c-0.262-1.217,0.454-2.739,1.6-3.401l55.849-32.245
					C176.95,226.209,178.005,226.708,178.161,227.986z"/>
				<path id="XMLID_702_" style="opacity:0.4;fill:#455A64;" d="M208.03,210.748c0.156,1.28-0.646,2.854-1.792,3.515l-20.758,11.976
					c-1.146,0.661-2.199,0.161-2.352-1.117c-0.153-1.278,0.651-2.85,1.796-3.511l20.749-11.983
					C206.819,208.966,207.874,209.467,208.03,210.748z"/>
				<path id="XMLID_974_" style="opacity:0.4;fill:#455A64;" d="M256.225,185.4l-40.253,23.24c-1.145,0.661-2.201,0.16-2.357-1.121
					c-0.156-1.28,0.646-2.854,1.792-3.515l39.898-23.03c1.146-0.661,2.28-0.206,2.534,1.016
					C258.093,183.212,257.37,184.739,256.225,185.4z"/>
				<path id="XMLID_759_" style="opacity:0.4;fill:#455A64;" d="M129.778,268.025c0.176,1.27-0.601,2.834-1.747,3.495l-5.594,3.229
					c-1.146,0.661-2.316,0.226-2.616-0.972c-0.299-1.198,0.387-2.706,1.533-3.368l6.035-3.486
					C128.535,266.261,129.602,266.755,129.778,268.025z"/>
				<path id="XMLID_654_" style="opacity:0.4;fill:#455A64;" d="M156.949,252.339c0.176,1.267-0.595,2.828-1.74,3.489
					l-18.019,10.403c-1.145,0.661-2.227,0.173-2.41-1.091s0.604-2.826,1.75-3.487l18.038-10.413
					C155.712,250.579,156.773,251.072,156.949,252.339z"/>
				<path id="XMLID_458_" style="opacity:0.4;fill:#455A64;" d="M194.331,230.755c0.196,1.256-0.569,2.811-1.715,3.472
					l-28.259,16.314c-1.146,0.661-2.226,0.174-2.409-1.091s0.603-2.827,1.748-3.488l28.212-16.286
					C193.053,229.016,194.135,229.499,194.331,230.755z"/>
				<path id="XMLID_655_" style="opacity:0.4;fill:#455A64;" d="M146.518,271.34c0.234,1.232-0.5,2.767-1.645,3.428l-20.376,11.764
					c-1.145,0.661-2.344,0.245-2.678-0.929c-0.333-1.174,0.325-2.663,1.471-3.324l20.739-11.974
					C145.175,269.642,146.284,270.107,146.518,271.34z"/>
				<path id="XMLID_653_" style="opacity:0.4;fill:#455A64;" d="M176.391,254.096c0.233,1.233-0.495,2.767-1.641,3.428
					l-12.697,7.329l-7.869,4.541c-1.146,0.661-2.279,0.202-2.515-1.028c-0.236-1.23,0.517-2.765,1.662-3.427l20.568-11.878
					C175.044,252.399,176.158,252.863,176.391,254.096z"/>
				<path id="XMLID_456_" style="opacity:0.4;fill:#455A64;" d="M196.354,242.573c0.23,1.233-0.503,2.766-1.649,3.427l-10.652,6.15
					c-1.145,0.661-2.273,0.2-2.506-1.033c-0.234-1.233,0.518-2.77,1.664-3.431l10.661-6.151
					C195.017,240.875,196.123,241.34,196.354,242.573z"/>
				<path id="XMLID_652_" style="opacity:0.4;fill:#455A64;" d="M164.081,274.042c0.287,1.206-0.398,2.717-1.544,3.379
					l-35.501,20.491c-1.146,0.661-2.374,0.26-2.745-0.896c-0.37-1.156,0.258-2.629,1.403-3.291l35.808-20.673
					C162.648,272.392,163.793,272.836,164.081,274.042z"/>
				<path id="XMLID_481_" style="opacity:0.4;fill:#455A64;" d="M198.738,254.034c0.277,1.209-0.415,2.724-1.561,3.385
					l-25.549,14.752c-1.145,0.661-2.314,0.222-2.601-0.983c-0.288-1.206,0.421-2.723,1.567-3.385l25.577-14.763
					C197.316,252.38,198.46,252.825,198.738,254.034z"/>
				<path id="XMLID_497_" style="opacity:0.4;fill:#455A64;" d="M147.081,296.55c0.339,1.172-0.306,2.655-1.452,3.316l-15.624,9.023
					c-1.145,0.661-2.402,0.278-2.807-0.857c-0.405-1.135,0.196-2.591,1.341-3.252l15.864-9.158
					C145.548,294.961,146.742,295.378,147.081,296.55z"/>
				<path id="XMLID_645_" style="opacity:0.4;fill:#455A64;" d="M175.518,282.614l-20.778,12.002
					c-1.145,0.661-2.367,0.254-2.708-0.918c-0.341-1.172,0.327-2.664,1.473-3.326l20.798-12.012c1.145-0.661,2.339-0.244,2.674,0.93
					C177.31,280.466,176.663,281.952,175.518,282.614z"/>
				<path id="XMLID_875_" style="opacity:0.4;fill:#455A64;" d="M201.54,265.11c0.331,1.177-0.315,2.664-1.46,3.326l-15.461,8.928
					c-1.145,0.661-2.36,0.25-2.699-0.925c-0.339-1.174,0.328-2.667,1.474-3.328l15.489-8.939
					C200.027,263.511,201.208,263.933,201.54,265.11z"/>
				<path id="XMLID_649_" style="opacity:0.4;fill:#455A64;" d="M170.383,295.637c0.389,1.145-0.225,2.61-1.37,3.271l-35.626,20.567
					c-1.146,0.661-2.432,0.292-2.874-0.824c-0.442-1.116,0.129-2.557,1.274-3.219l35.817-20.673
					C168.75,294.099,169.994,294.491,170.383,295.637z"/>
				<path id="XMLID_935_" style="opacity:0.4;fill:#455A64;" d="M204.873,275.722c0.399,1.138-0.19,2.59-1.336,3.251l-25.424,14.676
					c-1.145,0.661-2.391,0.271-2.783-0.872c-0.392-1.143,0.22-2.605,1.365-3.266l25.395-14.657
					C203.236,274.192,204.474,274.584,204.873,275.722z"/>
				<path id="XMLID_931_" style="fill:#27DEBF;" d="M194.039,294.348c0.434,1.116-0.143,2.557-1.288,3.219l-55.6,32.101
					c-1.145,0.661-2.46,0.312-2.936-0.781c-0.476-1.093,0.066-2.514,1.212-3.176l55.753-32.187
					C192.325,292.863,193.605,293.232,194.039,294.348z"/>
				<path id="XMLID_484_" style="opacity:0.4;fill:#455A64;" d="M233.895,271.338c0.436,1.116-0.138,2.557-1.284,3.219
					l-31.153,17.99c-1.145,0.661-2.43,0.293-2.869-0.824c-0.439-1.116,0.133-2.557,1.279-3.219l31.162-17.99
					C232.176,269.853,233.458,270.222,233.895,271.338z"/>
				<path id="XMLID_651_" style="opacity:0.4;fill:#455A64;" d="M272.471,251.547l-31.152,17.981
					c-1.145,0.661-2.43,0.294-2.869-0.819c-0.439-1.114,0.133-2.553,1.279-3.214l31.047-17.923c1.145-0.661,2.454-0.307,2.922,0.79
					C274.166,249.46,273.617,250.885,272.471,251.547z"/>
				<path id="XMLID_1008_" style="opacity:0.4;fill:#455A64;" d="M158.206,327.239c0.48,1.095-0.051,2.514-1.197,3.176
					l-15.719,9.073c-1.146,0.661-2.49,0.326-3.003-0.748c-0.513-1.074-0.001-2.481,1.145-3.142l15.844-9.148
					C156.421,325.788,157.726,326.144,158.206,327.239z"/>
				<path id="XMLID_494_" style="opacity:0.4;fill:#455A64;" d="M213.048,295.578c0.47,1.095-0.069,2.516-1.214,3.177
					l-45.618,26.343c-1.145,0.661-2.475,0.317-2.954-0.775c-0.48-1.092,0.075-2.52,1.221-3.181l45.646-26.353
					C211.273,294.128,212.577,294.482,213.048,295.578z"/>
				<path id="XMLID_483_" style="opacity:0.4;fill:#455A64;" d="M255.507,271.069c0.468,1.098-0.072,2.52-1.217,3.181l-33.25,19.197
					c-1.146,0.661-2.468,0.313-2.94-0.785c-0.472-1.097,0.09-2.529,1.235-3.19l33.26-19.198
					C253.74,269.613,255.038,269.971,255.507,271.069z"/>
				<path id="XMLID_656_" style="opacity:0.4;fill:#455A64;" d="M276.61,261.366l-13.105,7.568
					c-1.145,0.661-2.473,0.318-2.946-0.778c-0.472-1.096,0.086-2.526,1.231-3.188l12.99-7.501c1.145-0.661,2.484-0.325,2.989,0.752
					S277.755,260.705,276.61,261.366z"/>
				<path id="XMLID_833_" style="opacity:0.4;fill:#455A64;" d="M182.606,325.189c0.526,1.066,0.025,2.466-1.121,3.128
					l-35.731,20.625c-1.145,0.661-2.518,0.344-3.066-0.709c-0.548-1.053-0.063-2.443,1.083-3.104l35.808-20.673
					C180.725,323.795,182.08,324.123,182.606,325.189z"/>
				<path id="XMLID_486_" style="opacity:0.4;fill:#455A64;" d="M232.477,296.403c0.526,1.066,0.024,2.466-1.121,3.127
					l-40.751,23.518c-1.146,0.661-2.501,0.335-3.027-0.728c-0.526-1.064-0.025-2.462,1.121-3.123l40.751-23.527
					C230.596,295.009,231.951,295.337,232.477,296.403z"/>
				<path id="XMLID_665_" style="opacity:0.4;fill:#455A64;" d="M281.074,270.821l-40.607,23.441
					c-1.145,0.661-2.501,0.333-3.027-0.733c-0.526-1.066-0.025-2.466,1.121-3.128l40.559-23.413
					c1.146-0.661,2.512-0.339,3.051,0.719C282.711,268.766,282.219,270.159,281.074,270.821z"/>
				<path id="XMLID_936_" style="opacity:0.4;fill:#455A64;" d="M157.407,351.581c0.566,1.045,0.096,2.428-1.049,3.089l-5.824,3.362
					c-1.145,0.661-2.548,0.359-3.133-0.675c-0.585-1.034-0.13-2.409,1.015-3.07l5.891-3.401
					C155.454,350.225,156.841,350.536,157.407,351.581z"/>
				<path id="XMLID_667_" style="opacity:0.4;fill:#455A64;" d="M207.192,322.838c0.566,1.042,0.097,2.423-1.049,3.085
					l-40.598,23.45c-1.145,0.662-2.535,0.351-3.104-0.694c-0.569-1.045-0.101-2.428,1.044-3.089l40.607-23.441
					C205.238,321.487,206.626,321.795,207.192,322.838z"/>
				<path id="XMLID_659_" style="opacity:0.4;fill:#455A64;" d="M257.044,294.066c0.566,1.045,0.096,2.428-1.049,3.089
					l-40.665,23.47c-1.146,0.661-2.533,0.352-3.099-0.69c-0.566-1.042-0.096-2.423,1.049-3.085l40.665-23.479
					C255.09,292.71,256.478,293.021,257.044,294.066z"/>
				<path id="XMLID_689_" style="opacity:0.4;fill:#455A64;" d="M285.854,279.912l-20.682,11.937
					c-1.146,0.661-2.533,0.352-3.099-0.69c-0.566-1.042-0.096-2.423,1.049-3.085l20.644-11.917c1.145-0.661,2.542-0.357,3.118,0.68
					C287.461,277.874,287,279.25,285.854,279.912z"/>
				<path id="XMLID_765_" style="opacity:0.4;fill:#455A64;" d="M182.309,348.87c0.606,1.018,0.168,2.38-0.977,3.041l-25.74,14.858
					c-1.145,0.661-2.576,0.378-3.195-0.632c-0.619-1.01-0.192-2.366,0.953-3.027l25.788-14.887
					C180.284,347.562,181.704,347.852,182.309,348.87z"/>
				<path id="XMLID_666_" style="opacity:0.4;fill:#455A64;" d="M232.166,320.083c0.603,1.018,0.164,2.38-0.982,3.042
					l-40.579,23.431c-1.145,0.661-2.561,0.37-3.161-0.651c-0.6-1.021-0.159-2.385,0.987-3.046L229,319.437
					C230.145,318.776,231.563,319.065,232.166,320.083z"/>
				<path id="XMLID_697_" style="opacity:0.4;fill:#455A64;" d="M290.912,288.648l-50.455,29.131
					c-1.145,0.661-2.561,0.368-3.161-0.656c-0.6-1.024-0.159-2.39,0.987-3.051l50.417-29.103c1.146-0.661,2.569-0.374,3.181,0.642
					S292.058,287.987,290.912,288.648z"/>
				<path id="XMLID_764_" style="opacity:0.4;fill:#455A64;" d="M207.518,345.785c0.645,0.997,0.24,2.342-0.905,3.003
					l-45.694,26.382c-1.145,0.661-2.606,0.393-3.262-0.599c-0.656-0.992-0.259-2.332,0.886-2.993l45.732-26.401
					C205.421,344.516,206.872,344.788,207.518,345.785z"/>
				<path id="XMLID_691_" style="opacity:0.4;fill:#455A64;" d="M257.298,317.047c0.643,0.997,0.235,2.342-0.91,3.003
					l-40.569,23.422c-1.145,0.661-2.597,0.389-3.243-0.608c-0.646-0.997-0.24-2.342,0.905-3.003l40.578-23.422
					C255.205,315.777,256.655,316.049,257.298,317.047z"/>
				<path id="XMLID_754_" style="opacity:0.4;fill:#455A64;" d="M296.238,297.049l-30.635,17.684
					c-1.146,0.661-2.595,0.387-3.238-0.613s-0.235-2.347,0.91-3.008l30.616-17.674c1.146-0.661,2.6-0.389,3.248,0.608
					C297.787,295.044,297.384,296.388,296.238,297.049z"/>
			</g>
			<g id="XMLID_418_">
				<path id="XMLID_1013_" style="fill:#27DEBF;" d="M271.135,241.508l-59.795,34.505c-0.297-0.785-0.575-1.571-0.852-2.357
					c-0.077-0.22-0.153-0.45-0.23-0.671l-0.805-2.366c-0.268-0.795-0.536-1.59-0.786-2.395c-4.119-12.932-7.108-27.062-9.493-43.022
					l59.728-34.467c1.83,13.67,4.617,26.334,8.171,38.299c0.364,1.236,0.738,2.452,1.131,3.669c0.316,1.025,0.632,2.031,0.977,3.046
					C269.813,237.685,270.455,239.611,271.135,241.508z"/>
				<path id="XMLID_4_" style="opacity:0.5;" d="M271.135,241.508l-59.795,34.505c-0.297-0.785-0.575-1.571-0.852-2.357
					c-0.077-0.22-0.153-0.45-0.23-0.671l-0.805-2.366c-0.268-0.795-0.536-1.59-0.786-2.395c-4.119-12.932-7.108-27.062-9.493-43.022
					l59.728-34.467c1.83,13.67,4.617,26.334,8.171,38.299c0.364,1.236,0.738,2.452,1.131,3.669c0.316,1.025,0.632,2.031,0.977,3.046
					C269.813,237.685,270.455,239.611,271.135,241.508z"/>
				<path id="XMLID_1012_" style="fill:#27DEBF;" d="M271.135,241.508l-59.795,34.505c-0.297-0.785-0.575-1.571-0.852-2.357
					c-0.077-0.22-0.153-0.45-0.23-0.671l-0.805-2.366c-0.268-0.795-0.536-1.59-0.786-2.395c2.232-9.302,9.838-40.215,9.838-40.215
					l33.423,18.833l-6.82-6.84l5.393-17.521l16.572,6.552l0.019,0.01c0.364,1.226,0.738,2.443,1.111,3.659
					c0.326,1.015,0.642,2.04,0.977,3.046C269.813,237.685,270.455,239.611,271.135,241.508z"/>
				<path id="XMLID_431_" style="fill:#27DEBF;" d="M238.643,209.829c2.22-1.289,4.429,0.035,5.012,2.941
					c0.584,2.906-0.667,6.282-2.88,7.559c-2.214,1.277-4.579-0.015-5.168-2.909C235.017,214.525,236.423,211.118,238.643,209.829z"
					/>
			</g>
		</g>
	</g>
</g>
<g id="Coffee_1_">
	<g id="Coffee">
		<g id="XMLID_1122_">
			<path id="XMLID_1185_" style="fill:#733232;" d="M456.948,242.061c-16.322-6.01-42.345-6.01-58.124-0.001
				c-15.779,6.01-15.779,15.755,0,21.765c15.779,6.01,41.802,6.01,58.124,0C473.27,257.815,473.27,248.071,456.948,242.061z"/>
		</g>
		<g id="XMLID_1103_">
			<path id="XMLID_1183_" style="fill:#FAFAFA;" d="M469.954,222.283l-83.725,0.091l6.345,98.643h0.079
				c0.397,3.593,3.752,7.137,10.148,9.88c13.636,5.849,36.122,5.849,50.225,0c6.617-2.744,10.088-6.287,10.496-9.88h0.082
				L469.954,222.283z"/>
		</g>
		<g id="XMLID_1102_">
			<path id="XMLID_1182_" style="fill:#EBEBEB;" d="M386.229,222.375l1.289,20.033c1.923,1.334,4.22,2.601,6.993,3.75
				c18.104,7.498,47.962,7.497,66.689-0.001c0.809-0.323,1.485-0.677,2.219-1.018c2.986-1.408,5.255-2.956,5.255-2.956l1.279-19.899
				L386.229,222.375z"/>
		</g>
		<g id="XMLID_1047_">
			<g id="XMLID_1101_">
				<path id="XMLID_1181_" style="fill:#27DEBF;" d="M475.246,225.199v-15.08h-9.757c-1.303-0.686-2.724-1.347-4.288-1.973
					c-18.728-7.498-48.585-7.498-66.69-0.001c-1.507,0.624-2.842,1.29-4.098,1.974h-9.481v15.082l0,0
					c0,4.913,4.527,9.827,13.578,13.576c18.104,7.498,47.962,7.497,66.69-0.001C470.566,235.027,475.247,230.113,475.246,225.199z"
					/>
			</g>
			<g id="XMLID_17_" style="opacity:0.5;">
				<path id="XMLID_18_" d="M475.246,225.199v-15.08h-9.757c-1.303-0.686-2.724-1.347-4.288-1.973
					c-18.728-7.498-48.585-7.498-66.69-0.001c-1.507,0.624-2.842,1.29-4.098,1.974h-9.481v15.082l0,0
					c0,4.913,4.527,9.827,13.578,13.576c18.104,7.498,47.962,7.497,66.69-0.001C470.566,235.027,475.247,230.113,475.246,225.199z"
					/>
			</g>
			<g id="XMLID_1099_">
				<path id="XMLID_1180_" style="fill:#27DEBF;" d="M461.2,196.543c-18.727-7.497-48.585-7.498-66.689-0.001
					c-18.104,7.497-18.105,19.654,0,27.151c18.104,7.498,47.962,7.497,66.689,0C479.928,216.197,479.928,204.041,461.2,196.543z"/>
			</g>
			<g id="XMLID_19_" style="opacity:0.2;">
				<path id="XMLID_20_" d="M461.2,196.543c-18.727-7.497-48.585-7.498-66.689-0.001c-18.104,7.497-18.105,19.654,0,27.151
					c18.104,7.498,47.962,7.497,66.689,0C479.928,216.197,479.928,204.041,461.2,196.543z"/>
			</g>
			<g id="XMLID_1188_">
				<g id="XMLID_1098_">
					<path id="XMLID_1174_" style="fill:#27DEBF;" d="M455.385,197.762c-15.438-5.924-40.051-5.924-54.975-0.001
						c-14.924,5.924-14.924,15.53,0,21.454c14.924,5.924,39.537,5.924,54.975-0.001
						C470.823,213.291,470.823,203.686,455.385,197.762z"/>
				</g>
				<g id="XMLID_15_" style="opacity:0.5;">
					<path id="XMLID_16_" d="M455.385,197.762c-15.438-5.924-40.051-5.924-54.975-0.001c-14.924,5.924-14.924,15.53,0,21.454
						c14.924,5.924,39.537,5.924,54.975-0.001C470.823,213.291,470.823,203.686,455.385,197.762z"/>
				</g>
				<g id="XMLID_1097_">
					<polygon id="XMLID_1173_" style="fill:#27DEBF;" points="466.613,206.493 463.592,194.058 392.581,194.058 389.548,206.493
											"/>
				</g>
				<g id="XMLID_13_" style="opacity:0.5;">
					<polygon id="XMLID_14_" points="466.613,206.493 463.592,194.058 392.581,194.058 389.548,206.493 					"/>
				</g>
				<g id="XMLID_1096_">
					<path id="XMLID_1171_" style="fill:#27DEBF;" d="M453.159,186.112c-14.179-5.156-36.786-5.156-50.492-0.001
						c-13.707,5.156-13.707,13.516,0,18.672c13.707,5.157,36.313,5.156,50.492,0C467.338,199.627,467.338,191.268,453.159,186.112z"
						/>
				</g>
				<g id="XMLID_21_" style="opacity:0.2;">
					<path id="XMLID_22_" d="M453.159,186.112c-14.179-5.156-36.786-5.156-50.492-0.001c-13.707,5.156-13.707,13.516,0,18.672
						c13.707,5.157,36.313,5.156,50.492,0C467.338,199.627,467.338,191.268,453.159,186.112z"/>
				</g>
				<g id="XMLID_1095_">
					<path id="XMLID_1151_" style="fill:#27DEBF;" d="M458.876,195.462c-0.025,0.196-0.392,0.858-1.57,1.766
						c-1.104,0.834-2.944,1.889-5.815,2.944c-6.257,2.258-14.918,3.582-23.751,3.582s-17.347-1.3-23.358-3.558
						c-2.822-1.055-4.588-2.134-5.619-2.969c-1.153-0.932-1.472-1.619-1.472-1.791c0-0.343,1.227-2.527,7.091-4.735
						c6.012-2.258,14.526-3.558,23.358-3.558s17.494,1.3,23.751,3.582C457.38,192.861,458.851,195.02,458.876,195.462z"/>
				</g>
				<g id="XMLID_1_" style="opacity:0.5;">
					<path id="XMLID_12_" d="M458.876,195.462c-0.025,0.196-0.392,0.858-1.57,1.766c-1.104,0.834-2.944,1.889-5.815,2.944
						c-6.257,2.258-14.918,3.582-23.751,3.582s-17.347-1.3-23.358-3.558c-2.822-1.055-4.588-2.134-5.619-2.969
						c-1.153-0.932-1.472-1.619-1.472-1.791c0-0.343,1.227-2.527,7.091-4.735c6.012-2.258,14.526-3.558,23.358-3.558
						s17.494,1.3,23.751,3.582C457.38,192.861,458.851,195.02,458.876,195.462z"/>
				</g>
				<g id="XMLID_1094_">
					<path id="XMLID_1144_" style="fill:#27DEBF;" d="M457.306,197.228c-1.104,0.834-2.944,1.889-5.815,2.944
						c-6.257,2.258-14.918,3.582-23.751,3.582s-17.347-1.3-23.358-3.558c-2.822-1.055-4.588-2.134-5.619-2.969
						c1.031-0.834,2.797-1.914,5.619-2.969c6.012-2.257,14.526-3.557,23.358-3.557s17.494,1.3,23.751,3.582
						C454.362,195.339,456.202,196.369,457.306,197.228z"/>
				</g>
				<g id="XMLID_1087_" style="opacity:0.5;">
					<path id="XMLID_1143_" d="M443.099,197.548c2.065-1.17,4.576-1.648,5.608-1.068c1.033,0.581,0.196,2.012-1.87,3.199
						c-2.065,1.186-4.576,1.664-5.608,1.068C440.197,200.15,441.034,198.718,443.099,197.548z"/>
				</g>
			</g>
		</g>
		<g id="XMLID_1046_">
			<path id="XMLID_1142_" style="fill:#B16668;" d="M389.37,289.139c0,3.711,3.716,7.422,11.149,10.253
				c14.866,5.662,39.381,5.662,54.758-0.001c7.675-2.826,11.52-6.529,11.532-10.233l2.38-36.215
				c-0.001,3.938-4.081,7.877-12.241,10.881c-16.322,6.01-42.344,6.011-58.124,0c-7.89-3.005-11.835-6.944-11.834-10.883
				L389.37,289.139z"/>
		</g>
		<g id="XMLID_1041_">
			<g id="XMLID_1045_">
				<path id="XMLID_1137_" style="fill:#733232;" d="M414.924,291.28c-1.38-1.856-2.143-4.137-3.26-6.147
					c-2.225-4.002-5.405-6.723-9.471-8.339c-0.544-0.216-1.216,0.008-1.474,0.534c-2.06,4.192-0.796,10.061,3.466,14.324
					c4.219,4.219,10.03,5.525,14.215,3.556c0.237-0.112,0.303-0.574,0.11-0.687C417.162,293.737,415.96,292.676,414.924,291.28z"/>
			</g>
			<g id="XMLID_1044_">
				<path id="XMLID_1136_" style="fill:#733232;" d="M404.463,275.646c2.196,0.838,4.247,2.159,5.972,3.674
					c1.846,1.622,3.275,3.691,4.321,5.914c1.59,3.378,3.107,5.466,5.439,7.205c0.507,0.378,1.282,0.276,1.631-0.252
					c2.783-4.212,1.68-10.667-2.914-15.261c-4.352-4.352-10.393-5.601-14.6-3.358C403.465,274.018,403.567,275.305,404.463,275.646z
					"/>
			</g>
		</g>
	</g>
</g>
<g id="Speech_Bubbles">
	<g id="Speach_Bubble">
		<g id="XMLID_2247_">
			<g id="XMLID_1276_">
				<path id="XMLID_2266_" style="fill:#27DEBF;" d="M349.329,73.944l0-10.224l-8.63-0.752c-0.135-0.012-0.256,0.017-0.358,0.073
					c-0.334,0.183-8.505,4.858-8.611,4.922c-0.319,0.191-0.434,0.656-0.141,0.974l9.15,9.918L349.329,73.944z"/>
				<path id="XMLID_2239_" style="fill:#27DEBF;" d="M340.738,78.854l-9.15-9.918c-0.392-0.424-0.056-1.108,0.519-1.058l8.63,0.752
					V78.854z"/>
				<path id="XMLID_2287_" style="fill:#27DEBF;" d="M349.326,63.717l-8.588,4.917l-8.632-0.756
					c-0.109-0.007-0.211,0.007-0.298,0.044c0.69-0.407,8.217-4.713,8.53-4.881c0.102-0.058,0.225-0.087,0.363-0.073L349.326,63.717z
					"/>
				<path id="XMLID_2286_" style="opacity:0.5;fill:#FFFFFF;" d="M349.326,63.717l-8.588,4.917l-8.632-0.756
					c-0.109-0.007-0.211,0.007-0.298,0.044c0.69-0.407,8.217-4.713,8.53-4.881c0.102-0.058,0.225-0.087,0.363-0.073L349.326,63.717z
					"/>
			</g>
			<g id="XMLID_1200_">
				<g id="XMLID_1212_">
					<g id="XMLID_1262_">
						<g id="XMLID_1263_">
							<path id="XMLID_1269_" style="fill:#27DEBF;" d="M340.755,57.095c0-1.984,1.393-4.396,3.111-5.389l2.533-1.462
								c1.718-0.992,4.504-0.992,6.222,0l26.999,15.59c1.718,0.992,3.111,3.404,3.111,5.389v31.191c0,1.984-1.393,4.396-3.111,5.389
								l-2.533,1.463c-1.718,0.992-4.504,0.992-6.222,0l-7.971-4.602l-10.36-5.986l-8.668-5.002
								c-1.718-0.992-3.111-3.404-3.111-5.388L340.755,57.095z"/>
							<path id="XMLID_1453_" style="fill:#FAFAFA;" d="M366.646,84.428c0.008-1.82-0.428-3.732-1.15-5.422l0.003-0.004
								l-0.015-0.036c-0.844-1.96-2.082-3.613-3.46-4.423c-2.364-1.395-4.336,1.435-4.647,4.771
								c-0.281-3.683-2.217-8.811-4.581-10.195c-1.378-0.81-2.624-0.616-3.481,0.343l-0.016,0.018l0.003,0.007
								c-0.733,0.835-1.184,2.225-1.192,4.045c-0.025,5.641,3.367,10.758,6.205,16.136l2.991,5.649l3.025-2.112
								C363.201,91.183,366.621,90.069,366.646,84.428z"/>
							<path id="XMLID_1268_" style="opacity:0.2;" d="M382.731,102.413c0,1.984-1.393,4.396-3.111,5.389l-2.533,1.462
								c-1.553,0.897-3.97,0.975-5.69,0.251c1.464,0.554,2.579-0.273,2.579-2.047l0-31.191c0-0.992-0.348-2.091-0.911-3.066
								l8.755-5.055c0.563,0.975,0.911,2.074,0.911,3.066V102.413z"/>
							<path id="XMLID_2263_" style="opacity:0.5;fill:#FFFFFF;" d="M340.857,56.211c0.363-1.321,1.567-1.742,3.004-0.914
								l27.007,15.595c0.856,0.493,1.64,1.335,2.191,2.322l8.752-5.051c-0.566-0.987-1.335-1.829-2.191-2.322l-26.992-15.595
								c-1.727-0.987-4.514-0.987-6.227,0l-2.54,1.466C342.395,52.554,341.161,54.44,340.857,56.211z"/>
						</g>
					</g>
				</g>
			</g>
		</g>
	</g>
	<g id="Speach_Bubble_1_">
		<g id="XMLID_639_">
			<g id="XMLID_1288_">
				<path id="XMLID_1292_" style="fill:#27DEBF;" d="M349.329,141.139l0-10.224l-8.63-0.752c-0.135-0.012-0.256,0.017-0.358,0.073
					c-0.334,0.183-8.505,4.858-8.611,4.922c-0.319,0.191-0.434,0.656-0.141,0.974l9.15,9.918L349.329,141.139z"/>
				<path id="XMLID_1291_" style="fill:#27DEBF;" d="M340.738,146.049l-9.15-9.918c-0.392-0.424-0.056-1.108,0.519-1.058l8.63,0.752
					V146.049z"/>
				<path id="XMLID_1290_" style="fill:#27DEBF;" d="M349.326,130.912l-8.588,4.917l-8.632-0.756
					c-0.109-0.007-0.211,0.007-0.298,0.044c0.69-0.407,8.217-4.713,8.53-4.88c0.102-0.058,0.225-0.087,0.363-0.073L349.326,130.912z
					"/>
				<path id="XMLID_1289_" style="opacity:0.5;fill:#FFFFFF;" d="M349.326,130.912l-8.588,4.917l-8.632-0.756
					c-0.109-0.007-0.211,0.007-0.298,0.044c0.69-0.407,8.217-4.713,8.53-4.88c0.102-0.058,0.225-0.087,0.363-0.073L349.326,130.912z
					"/>
			</g>
			<g id="XMLID_640_">
				<g id="XMLID_643_">
					<g id="XMLID_1170_">
						<g id="XMLID_1184_">
							<path id="XMLID_1287_" style="fill:#27DEBF;" d="M340.755,124.291c0-1.984,1.393-4.396,3.111-5.389l2.533-1.462
								c1.718-0.992,4.504-0.992,6.222,0l26.999,15.59c1.718,0.992,3.111,3.404,3.111,5.389v31.191c0,1.984-1.393,4.396-3.111,5.389
								l-2.533,1.463c-1.718,0.992-4.504,0.992-6.222,0l-7.971-4.602l-10.36-5.986l-8.668-5.002
								c-1.718-0.992-3.111-3.404-3.111-5.388L340.755,124.291z"/>
							<path id="XMLID_1554_" style="fill:#FAFAFA;" d="M356.389,136.401l-2.378,5.05c-0.15,0.318-0.44,0.432-0.775,0.303
								l-5.316-2.039c-0.844-0.324-1.181,0.865-0.57,2.012l3.847,7.22c0.243,0.455,0.353,0.974,0.296,1.386l-0.908,6.535
								c-0.144,1.038,0.738,2.403,1.494,2.309l4.755-0.588c0.3-0.037,0.658,0.17,0.958,0.553l4.755,6.078
								c0.755,0.966,1.638,0.62,1.494-0.584l-0.908-7.584c-0.057-0.478,0.054-0.869,0.296-1.044l3.847-2.778
								c0.611-0.441,0.274-2.02-0.571-2.671l-5.316-4.099c-0.335-0.258-0.625-0.707-0.775-1.198l-2.378-7.796
								C357.858,136.229,356.767,135.599,356.389,136.401z"/>
							<path id="XMLID_1285_" style="opacity:0.2;" d="M382.731,169.609c0,1.984-1.393,4.396-3.111,5.389l-2.533,1.462
								c-1.553,0.897-3.97,0.975-5.69,0.251c1.464,0.554,2.579-0.273,2.579-2.047l0-31.191c0-0.992-0.348-2.091-0.911-3.066
								l8.755-5.055c0.563,0.975,0.911,2.074,0.911,3.066V169.609z"/>
							<path id="XMLID_1278_" style="opacity:0.5;fill:#FFFFFF;" d="M340.857,123.407c0.363-1.321,1.567-1.742,3.004-0.914
								l27.007,15.595c0.856,0.493,1.64,1.335,2.191,2.322l8.752-5.051c-0.566-0.987-1.335-1.829-2.191-2.322l-26.992-15.595
								c-1.727-0.987-4.514-0.987-6.227,0l-2.54,1.466C342.395,119.749,341.161,121.636,340.857,123.407z"/>
						</g>
					</g>
				</g>
			</g>
		</g>
	</g>
</g>
<g id="Character">
	<g id="Character_1_">
		<g id="XMLID_1242_">
			<g id="XMLID_1245_">
				<path id="XMLID_1271_" style="fill:#ED9B80;" d="M242.904,335.928l-24.188,6.418l-4.828,1.284h-0.01
					c-0.69,0.182-1.255-0.192-1.514-0.718c-0.201-0.402-0.192-0.901,0.115-1.332c0.01-0.01,0.019-0.029,0.029-0.038l3.42-4.426
					l15.03-19.475l4.799,7.348L242.904,335.928z"/>
				<path id="XMLID_1236_" style="fill:#FFBDA7;" d="M235.758,324.988l-19.648,15.059l-3.746,2.864
					c-0.201-0.402-0.192-0.901,0.115-1.332c0.01-0.01,0.019-0.029,0.029-0.038l3.42-4.426l15.03-19.475L235.758,324.988z"/>
				<path id="XMLID_1224_" style="fill:#37474F;" d="M218.716,342.346l-4.828,1.284h-0.01c-0.69,0.182-1.255-0.192-1.514-0.718
					c-0.201-0.402-0.192-0.901,0.115-1.332c0.01-0.01,0.019-0.029,0.029-0.038l3.42-4.426c-0.211,1.15-0.144,2.127,0.182,2.931
					C216.532,341.111,217.422,341.877,218.716,342.346z"/>
				<path id="XMLID_1283_" style="fill:#263238;" d="M340.271,244.977l-2.397,1.596l-2.901,1.914L230.96,317.638
					c-0.911,3.385-0.122,6.972,1.516,10.049c2.48,4.695,6.929,8.234,10.419,8.227l103.244-68.642l5.532-3.679
					C347.958,265.777,336.576,247.218,340.271,244.977z"/>
				<path id="XMLID_1281_" style="fill:#37474F;" d="M337.874,246.573l-2.901,1.914L230.96,317.638
					c-0.911,3.385-0.122,6.972,1.516,10.049l107.031-72.063L337.874,246.573z"/>
				<path id="XMLID_1275_" style="fill:#F0F0F0;" d="M331.121,251.018l-5.349,3.57c-1.585,0.984-0.378,4.954,1.821,8.999
					c2.906,5.381,7.55,10.888,9.653,9.588l3.938-2.642l1.414-0.942c-2.103,1.299-6.76-4.21-9.666-9.59
					c-2.101-3.879-3.29-7.709-1.967-8.858l0.016-0.011C331.015,251.084,331.061,251.05,331.121,251.018z"/>
				<path id="XMLID_1350_" style="fill:#FAFAFA;" d="M332.931,260.002c-2.101-3.879-3.29-7.709-1.967-8.858l0.015-0.011
					c0.035-0.049,0.082-0.083,0.142-0.115l-5.349,3.57c-1.586,0.984-0.378,4.954,1.821,8.999L332.931,260.002L332.931,260.002z"/>
				<path id="XMLID_1270_" style="fill:#27DEBF;" d="M329.794,251.921c-3.686,2.277,7.79,20.856,11.476,18.579l5.366-3.557
					c-3.686,2.277-15.16-16.3-11.474-18.577L329.794,251.921z"/>
				<path id="XMLID_1264_" style="fill:#F0F0F0;" d="M340.271,244.977l-5.299,3.51c-3.635,2.209,7.266,20.252,11.168,18.786
					c0.071-0.016,0.147-0.059,0.222-0.102l5.309-3.577C347.958,265.777,336.576,247.218,340.271,244.977z"/>
				<path id="XMLID_1255_" style="fill:#ED9B80;" d="M362.744,230.07l-22.473,14.907c-1.581,0.957-0.409,4.894,1.751,8.919
					c2.891,5.392,7.526,10.953,9.649,9.698c0.013,0.002,0.013,0.002,0.029-0.009l21.613-14.343c5.316-2.93,1.16-13.909-4.329-18.08
					C366.942,229.586,364.732,228.972,362.744,230.07z"/>
				<path id="XMLID_1248_" style="fill:#FFBDA7;" d="M362.744,230.07l-22.473,14.907c-1.581,0.957-0.409,4.894,1.751,8.919
					l22.647-14.306c0,0-2.678-5.574-1.498-7.803c1.182-2.243,3.413-2.025,5.814-0.625
					C366.942,229.586,364.732,228.972,362.744,230.07z"/>
			</g>
			<path id="XMLID_1321_" style="opacity:0.4;fill:#FFFFFF;" d="M335.162,248.367l-5.368,3.555
				c-1.578,0.975-0.373,4.939,1.806,8.975l5.348-3.592C334.782,253.281,333.589,249.339,335.162,248.367z"/>
			<path id="XMLID_1274_" style="fill:#FAFAFA;" d="M340.271,244.977l-5.299,3.51c-1.583,0.962-0.409,4.926,1.743,8.974l5.307-3.564
				C339.87,249.872,338.692,245.934,340.271,244.977z"/>
		</g>
		<g id="XMLID_1204_">
			<g id="XMLID_573_">
				<g id="XMLID_1435_">
					<path id="XMLID_1437_" style="fill:#263238;" d="M306.951,429.346c0,0,0.684,2.167,1.043,4.059
						c0.285,1.504,0.69,4.017,0.15,5.138c-0.54,1.121-2.599,1.823-5.775,1.758c-2.057-0.042-5.282,1.313-7.493,2.51
						c-2.284,1.236-4.744,1.208-7.139,0.896c-2.822-0.368-5.729-2.046-6.171-3.222s0.153-1.731,6.85-4.483
						c0.061-0.025,7.065-3.08,10.334-6.594L306.951,429.346z"/>
					<path id="XMLID_1502_" style="fill:#FFA8A7;" d="M299.147,420.945l-0.427,6.096c-0.127,1.808-1.036,3.475-2.499,4.544
						c-3.437,2.51-7.755,4.396-7.803,4.416c-0.927,0.381-1.727,0.716-2.434,1.021c-0.181,0.633,0.061,1.636,3.021,2.129
						c4.511,0.752,14.948-6.53,14.948-6.53l0,0c1.732-1.091,2.998-2.425,2.998-3.275c0-3.524,0.993-9.122,0.993-9.122
						L299.147,420.945z"/>
				</g>
				<g id="XMLID_1501_">
					<g id="XMLID_1523_">
						<path id="XMLID_1525_" style="fill:#FFA8A7;" d="M343.089,414.207l-2.681-6.245l6.745-3.746l3.149,7.623
							c0.995,1.686,2.485,1.829,3.159,2.737c0.674,0.908-1.139,13.251-3.414,16.629c-2.275,3.379-7.685,0.719-8.561-0.219
							c-0.876-0.937,3.496-2.161,3.641-3.012c0.165-1.595-0.209-5.196-0.469-8.228C344.493,417.816,343.959,415.939,343.089,414.207
							z"/>
					</g>
					<g id="XMLID_1504_">
						<path id="XMLID_1512_" style="fill:#263238;" d="M351.551,413.101c-0.708,1.179-0.736,3.531-1.102,6.865
							c-0.366,3.334-0.701,8.659-2.591,10.062c-2.202,1.633-6.496,0.48-4.249-0.806c0.623-0.357,0.714-0.493,1.058-0.703
							c0.759-0.463,0.485-0.855,0.485-0.855s-1.056,0.812-3.181,1.742c-1.837,0.804-2.4,1.764-2.494,3.634
							c0.234,0.936,0.939,1.434,1.716,1.839c0.778,0.405,3.722,0.555,5.858,0.094c4.065-0.878,6.378-2.556,6.873-5.828
							c0.6-3.972,2.494-8.625,3.098-10.949C357.753,415.382,354.125,412.886,351.551,413.101z"/>
					</g>
				</g>
				<g id="XMLID_1211_">
					<path id="XMLID_6707_" style="fill:#FFA8A7;" d="M305.291,324.379c0,0,14.579,41.028,15.884,45.488
						c1.307,4.461,2.239,7.029,4.211,10.717c1.564,2.925,17.702,33.622,17.702,33.622c5.087-0.435,6.601-3.849,6.601-3.849
						s-6.487-27.464-7.997-32.427c-1.7-5.591-4.618-8.313-4.618-8.313l-2.941-30.874c-0.572-5.583-1.306-9.577-7.656-20.233
						l-3.944-5.056L305.291,324.379z"/>
				</g>
				<g id="XMLID_1209_">
					<path id="XMLID_6705_" style="fill:#FFA8A7;" d="M313.186,321.513c3.338,5.89,6.885,11.08,6.919,17.523
						c0.062,11.665-6.646,27.968-8.29,37.887c0,0,1.729,5.245,0.901,10.939c-0.594,4.088-5.372,36.394-5.372,36.394
						s-4.619,2.62-8.449,0.282c0,0-2.615-46.123-2.351-64.034c0.264-17.911,2.648-43.071,2.648-43.071L313.186,321.513z"/>
				</g>
			</g>
			<g id="XMLID_8305_">
				<polygon id="XMLID_8250_" style="fill:#FFA8A7;" points="305.568,274.671 306.712,284.731 316.626,285.875 315.196,272.529
					"/>
				<path id="XMLID_8306_" style="fill:#FFA8A7;" d="M306.28,250.253c-2.411,1.048-6.89,0.294-8.458,11.48
					c-1.235,8.809,0.355,11.825,1.479,13.061c0.759,0.834,5.661,1.602,7.889,1.07c2.788-0.665,8.899-3.193,11.977-7.555
					c3.621-5.133,4.772-12.219,1.192-15.267C315.323,248.752,308.321,249.366,306.28,250.253z"/>
				<path id="XMLID_631_" style="fill:#F28F8F;" d="M307.415,274.421c-2.174,0.573-5.394,0.864-7.094,0.84
					c1.338,0.447,3.618,0.775,5.402,0.719C307.548,275.077,307.415,274.421,307.415,274.421z"/>
				<path id="XMLID_8417_" style="fill:#F28F8F;" d="M297.987,261.252c0,0-2.639,3.464-2.352,3.868
					c0.287,0.404,1.784,0.914,1.784,0.914L297.987,261.252z"/>
			</g>
			<path id="XMLID_3676_" style="fill:#27DEBF;" d="M300.347,246.608c3.415-3.034,10.462-4.299,16.606-0.371
				c0,0,2.926,0.049,5.264,3.139c-0.095-0.4-0.057-0.837,0.114-1.256c0.466-1.094,1.741-1.607,2.834-1.141l-1.103,2.606
				c0.19-0.143,0.418-0.257,0.666-0.323c1.151-0.323,2.34,0.342,2.663,1.493l-3.224,0.904c1.499,1.24,3.224,6.265,2.729,9.432
				c-1.152,7.361-4.811,9.106-11.397,14.276l-2.065,0.323c-3.116,0-5.586-3.197-6.265-4.285c-0.826-1.323-0.82-2.785-0.82-2.785
				s0.589,0.92,1.758,0.597c0.713-0.19,1.484-0.561,2.083-1.236c1.902-2.092,1.274-5.754-0.599-6.258
				c-1.436-0.4-2.406,0.19-2.996,0.837l-0.618,0.97l-0.438,2.035l-0.162,0.77c-1.17-0.247-1.912-1.398-1.655-2.559
				c0.038-0.19,0.105-0.371,0.19-0.533l-0.247-0.352C295.782,258.934,296.819,249.746,300.347,246.608z"/>
			<path id="XMLID_2055_" style="opacity:0.5;" d="M300.347,246.608c3.415-3.034,10.462-4.299,16.606-0.371
				c0,0,2.926,0.049,5.264,3.139c-0.095-0.4-0.057-0.837,0.114-1.256c0.466-1.094,1.741-1.607,2.834-1.141l-1.103,2.606
				c0.19-0.143,0.418-0.257,0.666-0.323c1.151-0.323,2.34,0.342,2.663,1.493l-3.224,0.904c1.499,1.24,3.224,6.265,2.729,9.432
				c-1.152,7.361-4.811,9.106-11.397,14.276l-2.065,0.323c-3.116,0-5.586-3.197-6.265-4.285c-0.826-1.323-0.82-2.785-0.82-2.785
				s0.589,0.92,1.758,0.597c0.713-0.19,1.484-0.561,2.083-1.236c1.902-2.092,1.274-5.754-0.599-6.258
				c-1.436-0.4-2.406,0.19-2.996,0.837l-0.618,0.97l-0.438,2.035l-0.162,0.77c-1.17-0.247-1.912-1.398-1.655-2.559
				c0.038-0.19,0.105-0.371,0.19-0.533l-0.247-0.352C295.782,258.934,296.819,249.746,300.347,246.608z"/>
			<path id="XMLID_635_" style="fill:#FFA8A7;" d="M321.683,279.254c3.027,0.185,6.027,3.268,6.227,6.659c0.2,3.392-4,14.35-4,14.35
				L321.683,279.254z"/>
			<g id="XMLID_561_">
				<path id="XMLID_1433_" style="fill:#27DEBF;" d="M322.534,310.405c1.143-4.149,3.944-8.658,3.944-16.138
					c0-9.046-4.833-15.051-4.833-15.051l-5.716,0.087c0,0-0.108,1.391-2.989,1.952c-3.971,0.772-6.657-0.295-6.657-0.295
					c-0.543,0.056-3.58,0.164-3.58,0.164l-7.236,12.661c-1.773,2.477-2.05,5.83-0.204,8.796c0.911,1.465,2.003,2.45,2.874,3.074
					c0.675,3.071,1.746,6.205,1.746,6.205C311.294,314.836,317.72,315.373,322.534,310.405z"/>
				<path id="XMLID_1216_" style="opacity:0.3;" d="M322.534,310.405c1.143-4.149,3.944-8.658,3.944-16.138
					c0-9.046-4.833-15.051-4.833-15.051l-5.716,0.087c0,0-0.108,1.391-2.989,1.952c-3.971,0.772-6.657-0.295-6.657-0.295
					c-0.543,0.056-3.58,0.164-3.58,0.164l-7.236,12.661c-1.773,2.477-2.05,5.83-0.204,8.796c0.911,1.465,2.003,2.45,2.874,3.074
					c0.675,3.071,1.746,6.205,1.746,6.205C311.294,314.836,317.72,315.373,322.534,310.405z"/>
				<path id="XMLID_556_" style="fill:#27DEBF;" d="M299.883,311.858v3.363c0,0-11.199,15.487-13.266,34.446
					c0,0,8.996,11.367,30.171,8.286c24.426-3.555,27.21-17.386,27.21-17.386s-5.86-17.085-21.463-27.112v-3.051L299.883,311.858z"/>
				<path id="XMLID_1239_" style="opacity:0.3;" d="M299.883,311.858v3.363c0,0-11.199,15.487-13.266,34.446
					c0,0,8.996,11.367,30.171,8.286c24.426-3.555,27.21-17.386,27.21-17.386s-5.86-17.085-21.463-27.112v-3.051L299.883,311.858z"/>
				<path id="XMLID_496_" style="fill:#27DEBF;" d="M322.534,310.405c0,0-1.328,2.957-9.997,3.486
					c-3.486,0.213-10.226-0.436-12.655-2.032v3.363c0,0,3.368,2.628,13.41,2.08c9.218-0.503,9.242-3.847,9.242-3.847V310.405z"/>
			</g>
			<path id="XMLID_1203_" style="fill:#FFA8A7;" d="M302.844,281.161c-8.804,0.284-8.003,2.187-12.756,9.994
				c-2.663,4.374-6.648,12.48-8.752,16.622c-4.477,1.908-14.472,2.845-18.485,1.887c-0.786-0.188-1.493-0.64-1.948-1.309
				c-1.247-1.834-2.51-2.113-4.039-3.442c-1.185-1.031-1.511-1.94-1.865-1.781c-0.455,0.205-1.17,1.014-0.703,2.323
				c0.235,0.659,0.578,1.129,1.316,2.174c0,0-2.037-0.695-4.456-2.488c-3.28-2.429-5.225-2.452-5.028,2.753
				c0.123,3.262,2.255,5.77,9.554,7.887c2.103,0.61,5.422,1.564,8.174,1.915c6.655,0.849,16.354,0.07,21.048-0.895
				c0.634-0.13,1.403-0.853,3.253-2.68c2.881-2.845,10.497-15.595,10.497-15.595C304.64,295.314,303.909,285.548,302.844,281.161z"
				/>
		</g>
	</g>
</g>
</svg>
